<svg viewBox="0 0 20 20" xmlns="http://www.w3.org/2000/svg">
    <path fill-rule="evenodd" clip-rule="evenodd"
          d="M17.9309 6.85733L15.2792 12.5275C15.1556 12.7913 14.8863 12.961 14.5899 12.961H7.45054C7.10935 12.961 6.80972 12.7373 6.7191 12.4145L4.49282 4.48845H2.75862C2.33959 4.48845 2 4.15501 2 3.74449C2 3.33344 2.33959 3 2.75862 3H5.07072C5.41191 3 5.711 3.22372 5.80216 3.54646L8.02838 11.4725H14.1032L16.0587 7.29086H9.35426C8.93524 7.29086 8.59565 6.95741 8.59565 6.54636C8.59565 6.13585 8.93524 5.80241 9.35426 5.80241H17.2416C17.4996 5.80241 17.7406 5.9314 17.8803 6.14496C18.0194 6.35797 18.0386 6.62666 17.9309 6.85733ZM8.02947 14.245C8.78062 14.245 9.38942 14.8423 9.38942 15.5793C9.38942 16.3157 8.78062 16.913 8.02947 16.913C7.27885 16.913 6.66952 16.3157 6.66952 15.5793C6.66952 14.8423 7.27885 14.245 8.02947 14.245ZM13.69 14.245C14.4412 14.245 15.05 14.8423 15.05 15.5793C15.05 16.3157 14.4412 16.913 13.69 16.913C12.9394 16.913 12.3306 16.3157 12.3306 15.5793C12.3306 14.8423 12.9394 14.245 13.69 14.245Z"/>
</svg>
