<svg viewBox="0 0 64 36" fill="none" xmlns="http://www.w3.org/2000/svg">
	<title>American Express Credit Card</title>
	<rect width="64" height="36" rx="5" fill="#0A7EC2"/>
	<path d="M13.2551 22.3118L12.4266 24.2428H5L10.861 12H24.8595L26.2724 14.7038L27.5925 12H32.5652H35.0717H46.4653L48.0784 13.6808L49.8109 12H58.5751L52.3526 18.1073L58.3066 24.2428H49.825L47.9275 22.4395L46.0457 24.2428H35.0717H32.5652H15.7705L14.8595 22.3118H13.2551ZM14.8647 22.4412H13.2499H14.8647ZM32.8039 13.749H29.1177L26.3444 19.608L23.3603 13.749H19.6741V22.2315L15.8652 13.749H12.4072L8.33504 22.4939H10.8275L11.6526 20.5H16.3918L17.3398 22.4939H21.921V15.3754L25.1683 22.4939H27.3098L30.5396 15.4979V22.4939H32.8039V13.749H32.8039ZM48.0222 16.5823L45.3893 13.749H34.8224V22.4939H45.0382L47.9344 19.6255L50.8482 22.4939H53.5689L49.4088 18.0689L53.6918 13.749H50.8482L48.0222 16.5823ZM42.4579 20.7448H37.0868V18.821H42.4579V17.072H37.0868V15.4979H42.4579V14.0113L46.4424 17.9814L42.4579 21.969V20.7448ZM14.0749 15.183L15.6196 18.7334H12.4072L14.0749 15.183Z" fill="white"/>
</svg>
