<svg viewBox="0 0 64 36" fill="none" xmlns="http://www.w3.org/2000/svg">
    <title>Discover Credit Card</title>
    <rect width="64" height="36" rx="5" fill="#E1E7EA"/>
    <mask id="mask0" mask="alpha" maskUnits="userSpaceOnUse" x="0" y="0" width="64" height="36">
        <rect width="64" height="36" rx="5" fill="#E1E7EA"/>
    </mask>
    <g mask="url(#mask0)">
        <path d="M66.1667 35.3275C66.1667 38.8096 63.3154 41.6608 59.8333 41.6608H20.25C20.25 41.6608 57.6191 35.6429 66.1667 17.9108V35.3275ZM29.75 17.9108C29.75 20.6012 31.8096 22.6608 34.5 22.6608C37.1904 22.6608 39.25 20.6012 39.25 17.9108C39.25 15.2204 37.1904 13.1608 34.5 13.1608C31.8096 13.1608 29.75 15.2204 29.75 17.9108Z"
              fill="#FF6D00"/>
        <path d="M12.2321 13.1608H13.9762V22.6608H12.2321V13.1608ZM21.7321 17.9108C21.7321 20.6012 23.7917 22.6608 26.4821 22.6608C27.2738 22.6608 27.9108 22.5 28.7025 22.1846V20.125C28.0654 20.762 27.4346 21.0775 26.4821 21.0775C24.7441 21.0775 23.4762 19.8096 23.4762 17.9108C23.4762 16.1667 24.7441 14.7441 26.4821 14.7441C27.2738 14.7441 27.9108 15.0596 28.7025 15.6966V13.637C27.9108 13.3216 27.7368 13 26.4821 13C23.7917 13.1608 21.7321 15.375 21.7321 17.9108ZM42.9525 19.3333L40.4167 13.1608H38.5179L42.4762 22.6608H43.4225L47.3809 13.1608H45.4821L42.9525 19.3333ZM48.1725 22.6608H53.2441V21.0775H49.9167V18.5417H53.0833V16.9583H49.9167V14.7441H53.2441V13.1608H48.1725V22.6608ZM60.2083 16.012C60.2083 14.2679 59.1012 13.1608 57.0417 13.1608H54.3512V22.6608H56.0892V18.8633H56.25L58.7858 22.6608H61L58.1488 18.7025C59.4167 18.387 60.2083 17.4346 60.2083 16.012ZM56.5654 17.5954H56.0892V14.7441H56.5654C57.6725 14.7441 58.3096 15.2204 58.3096 16.1667C58.3096 16.9583 57.8333 17.5954 56.5654 17.5954ZM6.69043 13.1608H4V22.6608H6.53581C10.4941 22.6608 11.4404 19.3333 11.4404 17.9108C11.6012 15.0596 9.54167 13.1608 6.69043 13.1608ZM6.21419 21.0775H5.74414V14.7441H6.375C8.75 14.7441 9.70248 16.3275 9.70248 17.9108C9.70248 18.5417 9.54167 21.0775 6.21419 21.0775ZM18.7262 16.8037C17.6191 16.3275 17.2975 16.1667 17.2975 15.6966C17.2975 15.0596 17.9346 14.7441 18.5654 14.7441C19.0417 14.7441 19.5179 14.9049 19.9941 15.5358L20.9404 14.2679C20.1488 13.4762 19.3571 13.1608 18.25 13.1608C16.6667 13.1608 15.3988 14.2679 15.3988 15.8512C15.3988 17.1191 16.0358 17.75 17.6191 18.387C18.5654 18.7025 19.3571 19.0179 19.3571 19.8096C19.3571 20.6012 18.7262 21.0775 17.9346 21.0775C17.1429 21.0775 16.3512 20.6012 16.0358 19.8096L14.9225 20.9167C15.7142 22.1846 16.6667 22.6608 18.0892 22.6608C19.9941 22.6608 21.2559 21.3929 21.2559 19.6549C21.2559 18.2262 20.625 17.5954 18.7262 16.8037Z"
              fill="black"/>
    </g>
</svg>
