<svg viewBox="0 0 64 36" fill="none" xmlns="http://www.w3.org/2000/svg">
    <path fill-rule="evenodd" clip-rule="evenodd"
          d="M46.9577 0L5 0C2.23858 0 0 2.23858 0 5V31C0 33.7614 2.23858 36 5 36H46.7951C47.711 35.7864 48.5823 35.32 49.3001 34.6072L62.2889 21.7072C64.33 19.68 64.3498 16.3599 62.333 14.3292L49.4984 1.40627C48.7791 0.682006 47.8987 0.21099 46.9577 0ZM55.8716 15.2457C54.3498 13.7134 51.8781 13.7112 50.338 15.2408C48.7979 16.7704 48.7832 19.242 50.305 20.7743C51.8268 22.3066 54.2985 22.3088 55.8386 20.7792C57.3787 19.2496 57.3934 16.778 55.8716 15.2457Z"
          fill="#A182E9"/>
    <path d="M7.60036 17.62L8.46135 14.1453H10.6138C11.8592 14.1453 12.1205 14.4989 12.2128 16.513H13.1353L14.0116 13.0076H5.24803L4.95591 14.1607H6.52413L4.58692 21.9711H3.03408L2.77271 23.1242H8.03085L8.3076 21.9711H6.52413L7.33899 18.6501H7.98473C9.03021 18.6501 9.13783 18.8192 8.96871 20.2337H9.95269L10.9674 16.1133H9.98344C9.47608 17.374 9.24546 17.62 8.21535 17.62H7.60036Z"
          fill="white"/>
    <path d="M12.5921 23.1242H17.6042L17.881 21.9711H16.3435L17.1584 18.6962H18.496C19.5568 18.6962 19.8797 19.0345 19.8797 19.6033C19.8797 20.3413 19.5722 21.2177 19.5722 21.8788C19.5722 22.832 20.2487 23.3087 21.3249 23.3087C22.1859 23.3087 22.8624 22.9089 23.3851 22.2632L22.97 21.6636C22.6164 22.0018 22.3704 22.094 22.1398 22.094C21.8015 22.094 21.6017 21.9864 21.6017 21.5559C21.6017 21.1254 21.7554 20.5258 21.7554 20.0338C21.7554 19.1114 21.3096 18.5425 19.9566 18.2657L20.0027 18.1428C22.4012 17.9275 23.3851 16.6975 23.3851 15.2831C23.3851 14.1607 22.601 13.0076 20.0181 13.0076H15.0674L14.7753 14.1607H16.3435L14.4063 21.9711H12.8535L12.5921 23.1242ZM17.4351 17.62L18.2961 14.1453H19.6491C20.8176 14.1453 21.2327 14.6219 21.2481 15.3446C21.2481 15.9749 21.0174 16.636 20.6331 17.005C20.2179 17.4201 19.5722 17.62 18.6959 17.62H17.4351Z"
          fill="white"/>
    <path d="M25.6525 13.0076L25.3604 14.1607H26.9286L24.9914 21.9711H23.4386L23.1772 23.1242H32.2483L33.1862 19.3574H32.1714C31.1567 21.4791 30.9107 21.9864 29.4962 21.9864H26.9286L27.805 18.481H28.6199C29.6038 18.481 29.7268 18.6655 29.5885 20.0031H30.5571L31.5718 15.9442H30.5725C29.9882 17.2818 29.8037 17.4355 28.7736 17.4355H28.0664L28.8812 14.1453H31.4181C32.6788 14.1453 32.8172 14.5604 32.8633 16.4362H33.7858L34.6314 13.0076H25.6525Z"
          fill="white"/>
    <path d="M35.9974 13.0076L35.7053 14.1607H37.2735L35.3363 21.9711H33.7835L33.5221 23.1242H42.5932L43.531 19.3574H42.5163C41.5016 21.4791 41.2556 21.9864 39.8411 21.9864H37.2735L38.1499 18.481H38.9648C39.9487 18.481 40.0717 18.6655 39.9334 20.0031H40.902L41.9167 15.9442H40.9173C40.3331 17.2818 40.1486 17.4355 39.1185 17.4355H38.4113L39.2261 14.1453H41.763C43.0237 14.1453 43.1621 14.5604 43.2082 16.4362H44.1307L44.9763 13.0076H35.9974Z"
          fill="white"/>
</svg>
