<svg viewBox="0 0 64 36" fill="none" xmlns="http://www.w3.org/2000/svg">
	<title>Mastercard Credit Card</title>
	<rect width="64" height="36" rx="5" fill="#1B1D1D"/>
	<path d="M37.7812 29.0167H25.5264V6.99609H37.7812V29.0167Z" fill="#FF5F00"/>
	<path d="M26.3115 18.0046C26.3115 13.5377 28.4033 9.55858 31.6608 6.99432C29.2787 5.1192 26.2723 4 23.0051 4C15.2701 4 9 10.27 9 18.0046C9 25.7393 15.2701 32.0093 23.0051 32.0093C26.2723 32.0093 29.2787 30.8901 31.6608 29.015C28.4033 26.4507 26.3115 22.4716 26.3115 18.0046Z" fill="#EB001B"/>
	<path d="M54.3094 18.0046C54.3094 25.7393 48.0393 32.0093 40.3044 32.0093C37.0371 32.0093 34.0307 30.8901 31.6477 29.015C34.9061 26.4507 36.9979 22.4716 36.9979 18.0046C36.9979 13.5377 34.9061 9.55858 31.6477 6.99432C34.0307 5.1192 37.0371 4 40.3044 4C48.0393 4 54.3094 10.27 54.3094 18.0046Z" fill="#F79E1B"/>
</svg>
