<svg viewBox="0 0 64 36" fill="none" xmlns="http://www.w3.org/2000/svg">
    <title>Visa Credit Card</title>
    <rect width="64" height="36" rx="5" fill="#4DA1FF"/>
    <path d="M27.9667 26.7547H23.6733L26.3587 10.2983H30.6519L27.9667 26.7547Z" fill="#F7F8FC"/>
    <path d="M43.5306 10.7006C42.6837 10.3676 41.3405 10 39.6797 10C35.4399 10 32.4542 12.2408 32.4359 15.4444C32.4007 17.808 34.5736 19.1208 36.1987 19.9089C37.8597 20.7142 38.4244 21.2399 38.4244 21.9577C38.4075 23.0602 37.0822 23.5684 35.8461 23.5684C34.1319 23.5684 33.2135 23.3064 31.8178 22.693L31.2524 22.4301L30.6516 26.1242C31.6586 26.5788 33.5138 26.9823 35.4399 27C39.9448 27 42.8776 24.7939 42.9124 21.38C42.9295 19.5066 41.7822 18.0712 39.3086 16.8982C37.8069 16.1452 36.8873 15.6375 36.8873 14.8671C36.9049 14.1667 37.6651 13.4493 39.3602 13.4493C40.756 13.4142 41.7815 13.7467 42.5583 14.0794L42.9467 14.2542L43.5306 10.7006Z"
          fill="#F7F8FC"/>
    <path d="M49.2368 20.9248C49.5904 19.9794 50.9509 16.3204 50.9509 16.3204C50.9331 16.3555 51.3038 15.3576 51.5158 14.7449L51.8158 16.1629C51.8158 16.1629 52.6289 20.102 52.8054 20.9248C52.1344 20.9248 50.0848 20.9248 49.2368 20.9248ZM54.5364 10.2983H51.2155C50.1914 10.2983 49.4134 10.5957 48.9715 11.6637L42.5942 26.7545H47.0991C47.0991 26.7545 47.8408 24.7234 48.0002 24.2859C48.4944 24.2859 52.8768 24.2859 53.5126 24.2859C53.6358 24.8637 54.0249 26.7545 54.0249 26.7545H58.0001L54.5364 10.2983Z"
          fill="#F7F8FC"/>
    <path d="M20.0873 10.2983L15.8826 21.52L15.4232 19.2441C14.6458 16.618 12.2079 13.7648 9.4873 12.3461L13.3386 26.7373H17.8787L24.6271 10.2983H20.0873Z"
          fill="#F7F8FC"/>
    <path d="M11.9783 10.2983H5.07067L5 10.6308C10.3884 11.9964 13.957 15.2882 15.4232 19.2448L13.9215 11.6816C13.6743 10.6306 12.9146 10.3329 11.9783 10.2983Z"
          fill="#F7F8FC"/>
</svg>
