<svg viewBox="0 0 40 40" fill="none" xmlns="http://www.w3.org/2000/svg">
    <path d="M17.64 15.64C17.87 15.14 18 14.59 18 14C18 11.79 16.21 10 14 10C11.79 10 10 11.79 10 14C10 16.21 11.79 18 14 18C14.59 18 15.14 17.87 15.64 17.64L18 20L15.64 22.36C15.14 22.13 14.59 22 14 22C11.79 22 10 23.79 10 26C10 28.21 11.79 30 14 30C16.21 30 18 28.21 18 26C18 25.41 17.87 24.86 17.64 24.36L20 22L27 29H30V28L17.64 15.64ZM14 16C12.9 16 12 15.11 12 14C12 12.89 12.9 12 14 12C15.1 12 16 12.89 16 14C16 15.11 15.1 16 14 16ZM14 28C12.9 28 12 27.11 12 26C12 24.89 12.9 24 14 24C15.1 24 16 24.89 16 26C16 27.11 15.1 28 14 28ZM20 20.5C19.72 20.5 19.5 20.28 19.5 20C19.5 19.72 19.72 19.5 20 19.5C20.28 19.5 20.5 19.72 20.5 20C20.5 20.28 20.28 20.5 20 20.5ZM27 11L21 17L23 19L30 12V11H27Z"
          fill="#F95A86"/>
    <circle cx="20" cy="20" r="19" stroke="#18C3C3" stroke-width="2" stroke-dasharray="4 4"/>
</svg>
