<svg viewBox="0 0 394 118" fill="none" xmlns="http://www.w3.org/2000/svg">
    <path d="M147.146 59.9484C141.732 57.0244 135.797 60.1221 133.134 61.975C132.96 60.4116 132.873 58.8483 132.757 58.3272C132.67 55.6637 132.584 52.8264 132.844 50.1919C132.931 49.2654 132.931 48.368 133.018 47.3547C133.192 45.2412 133.394 43.0409 133.655 40.9565C133.915 39.2194 134.205 37.4823 134.755 35.919C135.131 34.6451 135.305 33.3423 135.566 32.1553C135.942 30.8815 135.566 30.0419 134.465 29.3181C133.192 28.5943 132.265 28.3048 130.818 28.5075C130.181 28.5943 129.457 28.768 128.791 29.0575C128.241 29.2312 127.98 29.7813 127.778 30.3314C127.691 30.7946 127.604 31.2578 127.401 31.6052L126.851 34.3556C126.591 37.2797 125.664 40.03 123.927 42.6067C121.814 45.8203 116.892 53.1449 116.516 53.4923C116.255 53.8687 115.879 54.5056 115.329 54.3319C112.491 53.3186 116.805 36.9323 117.442 34.3845C118.253 30.9104 113.244 29.8971 111.131 31.6342C110.754 31.8947 110.32 33.4581 110.031 34.0082C108.988 36.4401 107.136 45.6755 107.136 47.6731C107.136 47.9626 107.136 48.2811 107.164 48.5706C103.285 55.49 96.4525 67.7652 95.7867 67.9679C95.4103 68.0548 95.1497 67.9679 94.8602 67.4178C94.4838 66.7809 94.397 65.8545 94.397 65.1307C94.3101 63.2199 95.8735 53.3186 96.1341 52.2185C96.3946 51.1183 96.771 49.9313 96.3078 48.8312C95.584 47.0941 93.4706 46.3703 91.994 45.6176C91.7335 45.4439 88.3462 43.8805 88.3462 43.7937C88.8963 42.8672 89.2726 41.8829 89.5332 41.0433C90.1701 38.9299 90.5465 36.3822 89.9964 34.1819C89.5332 32.4448 88.7226 30.2445 87.0723 29.3181C86.1459 28.768 81.948 26.8572 79.2845 30.7946C77.5474 33.4581 77.171 38.4956 80.0083 41.0433C80.9926 42.0277 83.4245 44.0542 84.7563 45.1544C82.7007 48.5996 77.0552 57.9218 75.5208 60.4695L73.6101 63.4805C72.0467 66.0282 68.1962 71.9921 67.3856 71.9921C64.4615 71.9921 62.985 56.8796 63.5351 56.069C63.9983 55.3452 68.8331 50.7709 70.686 48.2811C72.9731 45.357 71.1492 41.0433 68.2251 40.2327C65.6774 39.5668 60.7268 39.6826 57.3106 46.8914C56.9631 47.4415 56.6157 48.0205 56.2104 48.6575C55.5735 49.6708 53.9233 51.7842 51.8098 51.321C51.4335 51.2341 51.0861 51.2341 50.7097 51.1473C49.0595 50.8867 47.2355 51.4078 46.7723 53.1739C45.9617 56.5611 41.1848 71.9342 40.2873 71.9342C39.5635 71.9342 37.9133 45.9361 37.6238 41.9119C37.5369 40.2616 36.8131 38.7851 35.2498 38.264C33.6864 37.7139 30.2991 37.1639 29.2858 39.0746C28.7358 40.3485 29.199 42.2882 29.2858 43.5621C29.2858 43.9674 29.3727 44.807 29.4595 45.965C27.1145 49.8734 22.1059 58.1535 20.6873 60.4985L18.7766 63.5094C17.2132 66.0571 13.3627 72.0211 12.5521 72.0211C9.62799 72.0211 8.15148 56.9086 8.70155 56.0979C9.16477 55.3741 13.9996 50.7999 15.8525 48.3101C18.1396 45.386 16.3157 41.0723 13.3916 40.2616C10.2939 39.451 3.60614 39.7984 0.479419 52.7975C-2.3578 64.6096 7.97777 79.5194 16.2289 72.4843C18.8055 70.284 22.2796 63.5094 22.7139 62.6119C23.7272 60.8749 24.7405 59.1378 25.8117 57.4007C27.1145 55.0557 28.4752 52.7106 29.8359 50.3656C30.6176 58.6456 31.9783 71.5578 32.76 74.1345C33.3969 75.9584 34.7865 77.4349 37.0737 77.5218C40.1715 77.6955 43.4719 75.4952 44.4852 72.4843C45.9617 68.2864 49.0595 54.5346 49.349 53.4344C50.4491 53.6081 51.5493 53.695 52.7363 53.695C53.0547 53.695 54.0101 53.7818 55.255 53.1449C52.7073 64.8991 62.8981 79.4326 71.0624 72.4553C73.639 70.255 77.1132 63.4805 77.5474 62.583C78.5607 60.8459 79.574 59.1088 80.6452 57.3718C82.4691 54.0713 84.4088 50.7709 86.3196 47.4994L86.7828 46.7177C87.4487 47.2099 88.2014 47.7021 88.7805 48.0495C87.6803 51.3499 86.8697 63.5094 87.1303 65.4491C87.3908 67.0994 87.854 68.8364 88.9542 70.1103C89.8806 71.2104 93.4416 71.8474 94.8023 71.6736C97.4658 71.2104 98.9134 68.2864 100.1 66.2598C100.737 65.0728 104.501 57.9218 105.312 56.4743L107.599 52.5659C108.236 54.9688 109.538 57.0533 112.202 57.7481C114.865 58.4719 117.413 58.2114 118.977 55.5479C120.164 53.4344 124.101 47.2968 124.825 46.1966L126.012 65.8834C123.638 69.2707 105.138 83.5436 116.689 93.7923C125.491 101.667 133.8 87.1915 133.8 75.6689C133.8 72.3685 133.713 68.9812 133.423 65.6808C137.361 62.4672 142.485 60.4695 145.872 61.9171C148.246 62.9593 148.883 61.1354 147.146 59.9484ZM13.0442 43.5621C14.1444 43.012 16.3447 44.3727 14.0575 47.2099C13.9707 47.3836 9.74379 52.2474 8.29623 53.3476C8.90421 46.6888 11.1045 44.4885 13.0442 43.5621ZM67.8777 43.5621C68.9779 43.012 71.1782 44.3727 68.891 47.2099C68.8042 47.3836 64.5773 52.2474 63.1297 53.3476C63.7667 46.6888 65.938 44.4885 67.8777 43.5621ZM86.5512 42.3751C82.1507 39.3641 79.0529 33.5739 83.1639 31.6631C87.1013 29.7524 89.9385 37.4244 86.5512 42.3751ZM118.484 91.3604C110.146 83.1094 125.983 71.7605 127.17 70.1392C127.343 70.2261 127.343 77.6376 127.343 82.5014C127.372 87.4231 122.798 95.7321 118.484 91.3604Z"
          fill="#434343"/>
    <path d="M157.395 36.8743C153.631 36.3243 148.42 36.8743 144.772 36.7006C142.485 36.6138 138.171 37.5113 140.372 39.2773C142.196 40.7538 143.846 40.5511 145.872 40.5511C149.433 40.4643 154.297 40.4643 158.061 40.0879C159.624 39.9142 160.087 38.3508 159.972 37.5113C159.769 36.7875 158.785 37.1639 157.395 36.8743Z"
          fill="#434343"/>
    <path d="M269.262 66.2598C268.249 62.4961 262.401 50.8867 262.024 50.1629C254.96 36.5269 257.363 30.3893 262.951 29.7524C264.514 29.5786 265.701 29.8392 266.975 30.563C269.523 32.2132 270.826 35.0504 270.826 38.0613C270.826 39.5378 270.449 41.0723 269.899 42.4619C269.523 43.5621 267.988 45.386 268.162 46.3993C269.986 46.6888 271.086 44.5753 271.723 43.1857C271.984 42.6356 272.273 41.9987 272.447 41.3618C273.084 39.1615 273.084 36.8743 272.736 34.5003C272.099 30.4761 270.16 27.6389 266.049 26.4519C255.395 23.3252 248.533 37.077 252.355 47.2678C249.836 51.4657 245.638 58.3851 244.364 60.4985L242.453 63.5094C240.89 66.0571 237.04 72.021 236.229 72.021C233.305 72.021 231.828 56.9085 232.378 56.0979C232.842 55.3741 237.676 50.7998 239.5 48.31C241.788 45.386 239.964 41.0723 237.04 40.2616C234.202 39.5089 228.354 39.7694 224.996 49.8155C222.564 53.8397 219.64 58.7614 218.627 60.4695C218.54 60.5564 218.453 60.6432 218.453 60.7301C217.816 61.7434 217.266 62.6409 216.542 63.3936C215.355 64.4937 215.992 57.9797 215.992 56.4453C216.166 49.0338 218.105 32.6475 215.905 31.8079C214.081 31.171 212.981 30.9973 211.041 31.3447C209.565 31.6052 208.667 32.1553 208.754 33.8924C208.841 34.9925 208.494 36.9033 208.117 37.9166C206.293 43.1278 204.006 48.1653 200.88 52.7396C198.679 55.9532 197.579 52.5659 197.666 50.2787C197.753 45.0675 197.927 39.7405 198.129 34.5293C198.129 34.1529 198.129 33.8055 198.042 33.4291C197.782 31.2289 197.116 30.6788 194.945 30.7656C192.831 30.9393 191.268 31.0262 190.833 33.2265C190.457 35.5136 190.66 37.7139 190.37 40.0011C189.994 42.9251 189.907 46.1387 190.081 49.0628C190.081 49.3233 190.139 49.6128 190.168 49.9024L183.74 60.6143C183.364 61.2512 183.017 61.8013 182.64 62.3514C179.716 66.9256 177.226 68.9522 176.416 69.5891C175.229 70.3998 175.055 69.8497 174.679 68.489C174.302 67.0125 174.129 65.4781 174.042 64.0016C173.868 61.4249 173.781 58.8772 173.781 56.3006C173.694 53.7529 173.781 51.0894 173.781 48.4258C173.955 42.5777 175.431 25.6413 176.995 21.1539C176.995 21.1539 195.408 21.7908 197.145 15.4794C197.319 14.6688 198.071 10.2682 193.758 14.2056C190.37 17.2165 180.498 18.0561 178.095 17.6797C178.819 13.1054 179.282 10.6446 180.122 8.53115C180.932 6.33086 181.222 5.60708 179.195 4.42008C176.532 2.85672 173.984 -0.327911 172.16 3.40679C170.973 5.86764 170.51 12.0053 168.86 17.5929C168.86 17.5929 152.56 15.2189 154.673 21.9066C154.847 22.5435 155.224 23.5568 155.86 23.8174C156.671 24.2806 156.787 23.2673 157.337 22.7172C159.624 19.9669 162.461 20.8064 168.223 21.2407C167.759 22.8909 164.575 40.0011 164.575 45.2991C164.575 51.6973 163.938 59.3983 165.675 65.6228C166.862 70.1103 168.338 76.4216 174.476 76.1611C179.427 75.9874 187.388 60.1511 187.186 60.4116C187.909 59.2246 188.546 58.0376 188.836 57.4876L191.152 53.5213C191.673 54.6793 192.339 55.7505 193.323 56.5032C200.822 62.2645 206.583 48.6285 207.22 47.8179C207.22 49.9313 206.843 69.3286 213.068 69.3286C215.529 69.3286 217.005 68.489 220.306 63.1041C220.393 63.0172 220.393 62.9304 220.393 62.9304L221.666 60.7301C221.203 61.4539 222.853 58.7325 223.664 57.2849C223.838 67.9679 232.668 78.6219 239.877 72.4553C242.424 70.255 245.928 63.4805 246.362 62.583C247.375 60.8459 248.388 59.1088 249.489 57.3718C250.82 54.9688 252.239 52.5659 253.629 50.1629C256.321 55.6926 262.024 66.0861 262.024 66.694C243.525 70.6314 246.999 81.517 252.239 83.4568C263.675 87.481 271.839 77.8692 269.812 68.2574C280.148 67.881 281.074 73.0054 282.522 72.021C284.201 70.7472 279.887 66.4624 269.262 66.2598ZM236.692 43.5621C237.792 43.012 239.993 44.3727 237.705 47.2099C237.619 47.3836 233.421 52.2474 231.944 53.3475C232.552 46.6888 234.752 44.4885 236.692 43.5621ZM257.016 80.9959C254.179 82.6461 251.168 81.546 250.531 78.2456C249.807 74.3082 255.655 69.9076 262.43 68.9233C262.488 69.5602 265.701 75.7847 257.016 80.9959Z"
          fill="#434343"/>
    <path d="M392.391 59.9484C386.977 57.0243 381.042 60.1221 378.379 61.975C378.205 60.4116 378.089 58.8483 378.003 58.3271C377.916 55.6636 377.829 52.8264 378.089 50.1919C378.176 49.2654 378.176 48.3679 378.263 47.3547C378.437 45.2412 378.64 43.0409 378.9 40.9564C379.19 39.2194 379.45 37.4823 380 35.9189C380.377 34.6451 380.55 33.3423 380.84 32.1553C381.216 30.8814 380.84 30.0419 379.74 29.3181C378.466 28.5943 377.539 28.3048 376.063 28.5074C375.426 28.5943 374.702 28.768 374.036 29.0575C373.486 29.2312 373.226 29.7813 373.023 30.3314C372.936 30.7946 372.849 31.2578 372.647 31.6052L372.097 34.3556C371.836 37.2797 370.91 40.03 369.173 42.6067C367.059 45.8202 362.137 53.1449 361.761 53.4923C361.5 53.8687 361.124 54.5056 360.574 54.3319C357.737 53.3186 362.051 36.9322 362.687 34.3845C363.527 30.9104 358.461 29.8971 356.376 31.6342C356 31.8947 355.537 33.4581 355.276 34.0082C354.176 36.469 352.352 45.7334 352.352 47.731C352.352 48.918 352.439 50.1629 352.641 51.3499C348.27 59.9774 341.582 73.1212 341.293 72.9764C340.945 72.8027 341.293 62.1777 341.293 59.601V48.2521L341.206 42.5777C341.206 42.1145 341.206 41.6513 341.119 41.217V40.4064C341.119 39.7695 340.656 39.5957 340.106 39.3062C338.629 38.7562 336.892 38.4956 335.242 38.7562C334.605 38.9299 333.678 39.2194 333.215 39.7695C333.041 39.9432 332.376 41.3328 332.376 41.4197C330.002 39.0457 326.151 37.4823 323.227 37.8587C320.766 38.1192 319.116 39.0457 317.553 40.8696C315.352 43.3304 314.165 45.7044 313.442 47.7889C309.765 54.6503 299.4 73.8739 299.4 70.892C299.4 69.5312 304.611 8.09688 305.914 4.33323C306.464 3.05938 306.088 1.95923 305.19 1.40916C302.73 -0.154203 300.529 -0.964836 298.966 1.95923C298.039 3.87001 293.755 41.4197 292.915 42.9541C284.49 38.9299 279.829 41.6802 278.092 43.3304C270.681 50.7419 269.407 63.9147 278.092 65.0149C287.241 66.2887 291.902 51.3789 292.915 49.5549C292.741 50.4814 291.004 60.3537 290.802 67.302C290.802 69.7629 290.425 78.8246 296.563 78.8246C300.182 78.8246 307.738 64.9859 312.486 55.5478C312.631 57.227 313.036 59.6878 313.326 60.7011C313.963 62.7277 315.613 65.9992 317.553 65.9992C324.414 65.9992 328.178 54.6504 332.839 46.3124C332.752 47.2389 333.013 70.7472 333.389 73.208C334.113 77.4349 338.137 79.4325 341.987 77.4349C343.464 76.6822 349.573 64.0884 353.857 54.9978C354.639 56.3006 355.768 57.2849 357.476 57.7481C360.14 58.4719 362.687 58.2113 364.251 55.5478C365.438 53.4344 369.375 47.2968 370.099 46.1966L371.286 65.8834C368.912 69.2707 350.412 83.5436 361.935 93.7923C370.736 101.667 379.045 87.1915 379.045 75.6689C379.045 72.3685 378.958 68.9812 378.668 65.6807C382.606 62.4672 387.73 60.4695 391.117 61.9171C393.491 62.9593 394.128 61.1354 392.391 59.9484ZM278.237 61.8881C275.023 60.3248 282.724 44.8649 290.946 45.7913C288.051 52.0737 281.74 63.5094 278.237 61.8881ZM320.911 61.4249C320.621 61.8013 319.637 63.2488 318.884 62.9014C317.234 62.0908 318.624 56.3006 318.797 55.3162C319.261 52.9422 320.158 50.6551 321.635 48.7154C323.835 45.5018 326.498 42.5777 331.623 42.6646C329.596 45.6755 322.735 59.2246 320.911 61.4249ZM363.759 91.3604C355.421 83.1093 371.257 71.7605 372.444 70.1392C372.618 70.2261 372.618 77.6376 372.618 82.5014C372.618 87.4231 368.043 95.732 363.759 91.3604Z"
          fill="#434343"/>
    <path d="M232.544 117.946C236.605 117.946 239.456 115.848 239.456 112.109V112.056C239.456 108.774 237.304 107.402 233.485 106.407C230.23 105.573 229.423 105.17 229.423 103.933V103.879C229.423 102.964 230.257 102.238 231.844 102.238C233.431 102.238 235.072 102.937 236.74 104.094L238.891 100.974C236.982 99.4406 234.642 98.5799 231.898 98.5799C228.052 98.5799 225.308 100.839 225.308 104.255V104.309C225.308 108.048 227.756 109.097 231.548 110.065C234.695 110.872 235.341 111.41 235.341 112.459V112.513C235.341 113.616 234.319 114.288 232.624 114.288C230.472 114.288 228.697 113.4 227.003 112.002L224.555 114.934C226.814 116.951 229.692 117.946 232.544 117.946Z"
          fill="#F95A86"/>
    <path d="M251.12 117.677H255.263V110.119H262.902V117.677H267.044V98.8489H262.902V106.3H255.263V98.8489H251.12V117.677Z"
          fill="#F95A86"/>
    <path d="M288.771 118C294.581 118 298.804 113.616 298.804 108.263V108.209C298.804 102.857 294.634 98.5261 288.825 98.5261C283.015 98.5261 278.792 102.91 278.792 108.263V108.317C278.792 113.669 282.961 118 288.771 118ZM288.825 114.181C285.489 114.181 283.122 111.491 283.122 108.263V108.209C283.122 104.982 285.435 102.346 288.771 102.346C292.106 102.346 294.473 105.035 294.473 108.263V108.317C294.473 111.545 292.16 114.181 288.825 114.181Z"
          fill="#F95A86"/>
    <path d="M310.547 117.677H314.69V112.029H317.837C322.06 112.029 325.449 109.769 325.449 105.412V105.358C325.449 101.512 322.732 98.8489 318.24 98.8489H310.547V117.677ZM314.69 108.344V102.588H317.89C319.962 102.588 321.253 103.583 321.253 105.439V105.493C321.253 107.106 320.042 108.344 317.971 108.344H314.69Z"
          fill="#F95A86"/>
</svg>
