<svg viewBox="0 0 24 24" fill="none" xmlns="http://www.w3.org/2000/svg">
    <path d="M12 3.6001C6.54545 3.6001 1.88727 6.99283 0 11.7819C1.88727 16.571 6.54545 19.9637 12 19.9637C17.4545 19.9637 22.1127 16.571 24 11.7819C22.1127 6.99283 17.4545 3.6001 12 3.6001ZM12 17.2365C8.98909 17.2365 6.54545 14.7928 6.54545 11.7819C6.54545 8.77101 8.98909 6.32737 12 6.32737C15.0109 6.32737 17.4545 8.77101 17.4545 11.7819C17.4545 14.7928 15.0109 17.2365 12 17.2365ZM12 8.50919C10.1891 8.50919 8.72727 9.97101 8.72727 11.7819C8.72727 13.5928 10.1891 15.0546 12 15.0546C13.8109 15.0546 15.2727 13.5928 15.2727 11.7819C15.2727 9.97101 13.8109 8.50919 12 8.50919Z"/>
</svg>
