<svg viewBox="0 0 20 20" fill="none" xmlns="http://www.w3.org/2000/svg">
<path d="M20 5.45455V0H14.5455V1.81818H5.45455V0H0V5.45455H1.81818V14.5455H0V20H5.45455V18.1818H14.5455V20H20V14.5455H18.1818V5.45455H20ZM1.81818 1.81818H3.63636V3.63636H1.81818V1.81818ZM3.63636 18.1818H1.81818V16.3636H3.63636V18.1818ZM14.5455 16.3636H5.45455V14.5455H3.63636V5.45455H5.45455V3.63636H14.5455V5.45455H16.3636V14.5455H14.5455V16.3636ZM18.1818 18.1818H16.3636V16.3636H18.1818V18.1818ZM16.3636 3.63636V1.81818H18.1818V3.63636H16.3636ZM11.6138 11.9596H8.36762L7.68863 13.8182H6.18182L9.34426 5.45455H10.6464L13.8182 13.8182H12.3021L11.6138 11.9596ZM8.72727 10.9091H10.9091L9.82236 7.27273L8.72727 10.9091Z" />
</svg>
