<svg viewBox="0 0 20 20" fill="none" xmlns="http://www.w3.org/2000/svg">
    <path d="M8.66041 9.70126C8.39727 10.4306 8.93763 11.2 9.71297 11.2V11.2C10.4883 11.2 11.0287 10.4306 10.7655 9.70126V9.70126C10.4099 8.71565 9.01602 8.71565 8.66041 9.70126V9.70126ZM15.8707 2H3.55524C2.70855 2 2.01581 2.72 2.01581 3.6V16.4C2.01581 17.28 2.70855 18 3.55524 18H15.8707C16.7174 18 17.4101 17.28 17.4101 16.4V3.6C17.4101 2.72 16.7174 2 15.8707 2ZM13.2773 15.2C12.9626 15.2 12.6815 15.0034 12.5734 14.7079L12.3146 14C12.0511 13.2793 11.3655 12.8 10.5982 12.8H8.80974C8.04482 12.8 7.36221 13.2801 7.10363 14L6.85044 14.7049C6.74375 15.0019 6.4621 15.2 6.14648 15.2V15.2C5.62333 15.2 5.26178 14.6767 5.44684 14.1874L8.74391 5.46955C8.89631 5.06659 9.28216 4.8 9.71297 4.8V4.8C10.1438 4.8 10.5296 5.06659 10.682 5.46955L13.9783 14.1854C14.1638 14.6757 13.8015 15.2 13.2773 15.2V15.2Z"
          fill="#000"/>
</svg>
