<svg viewBox="0 0 48 30" fill="none" xmlns="http://www.w3.org/2000/svg">
    <path d="M41.676 2H2.38489V24.95C1.02417 24.7184 0 23.7095 0 22.5V2.5C0 1.11929 1.33469 0 2.98111 0H38.7545C40.1967 0 41.3998 0.85888 41.676 2ZM8.34712 10H45.3129V7.5C45.3129 7.22386 45.046 7 44.7167 7H8.94334C8.61405 7 8.34712 7.22386 8.34712 7.5V10ZM8.34712 15V27.5C8.34712 27.7761 8.61405 28 8.94334 28H44.7167C45.046 28 45.3129 27.7761 45.3129 27.5V15H8.34712ZM8.94334 5H44.7167C46.3631 5 47.6978 6.11929 47.6978 7.5V27.5C47.6978 28.8807 46.3631 30 44.7167 30H8.94334C7.29691 30 5.96222 28.8807 5.96222 27.5V7.5C5.96222 6.11929 7.29691 5 8.94334 5Z"
          fill="#6A7E90"/>
</svg>
