<svg viewBox="0 0 33 48" fill="none" xmlns="http://www.w3.org/2000/svg">
<path fill-rule="evenodd" clip-rule="evenodd" d="M27.2516 16.9846V12.4026C27.2879 10.8858 27.0243 9.377 26.4762 7.96493C25.9282 6.55285 25.1068 5.26607 24.0605 4.1803C23.0141 3.09452 21.7639 2.2317 20.3833 1.64259C19.0028 1.05349 17.5199 0.75 16.0219 0.75C14.5238 0.75 13.0409 1.05349 11.6604 1.64259C10.2799 2.2317 9.02966 3.09452 7.98329 4.1803C6.93692 5.26607 6.11556 6.55285 5.56753 7.96493C5.01949 9.377 4.75586 10.8858 4.79216 12.4026V17.913C1.70753 21.2077 -0.00415823 25.5801 0.0131903 30.1205C-0.07565 32.3695 0.284998 34.6135 1.0735 36.7179C1.86201 38.8223 3.0621 40.7436 4.6018 42.3667C6.14151 43.9898 7.98907 45.2811 10.0336 46.1632C12.0782 47.0453 14.2777 47.5 16.5 47.5C18.7223 47.5 20.9218 47.0453 22.9664 46.1632C25.0109 45.2811 26.8585 43.9898 28.3982 42.3667C29.9379 40.7436 31.138 38.8223 31.9265 36.7179C32.715 34.6135 33.0756 32.3695 32.9868 30.1205C32.999 27.6432 32.4944 25.1913 31.5061 22.9253C30.5177 20.6593 29.0679 18.6303 27.2516 16.9712V16.9846ZM19.6061 36.9244H12.9147L14.6886 30.5279C14.0091 30.1959 13.4368 29.6751 13.0382 29.0263C12.6397 28.3775 12.4314 27.6273 12.4376 26.8632C12.4202 26.3437 12.5063 25.826 12.6905 25.3409C12.8748 24.8557 13.1536 24.4131 13.5103 24.0394C13.867 23.6657 14.2943 23.3685 14.7668 23.1655C15.2392 22.9625 15.7472 22.8579 16.2604 22.8579C16.7736 22.8579 17.2816 22.9625 17.754 23.1655C18.2265 23.3685 18.6538 23.6657 19.0105 24.0394C19.3672 24.4131 19.646 24.8557 19.8302 25.3409C20.0145 25.826 20.1005 26.3437 20.0831 26.8632C20.0896 27.6271 19.8816 28.3771 19.4834 29.0258C19.0853 29.6746 18.5134 30.1955 17.8343 30.5279L19.6061 36.9244ZM23.4288 15.1322C21.4886 13.5023 19.0182 12.6632 16.5 12.7789C13.5733 12.6914 10.6805 13.4323 8.14668 14.9185V14.2906C8.14668 8.16131 10.534 4.7304 16.2802 4.7304C22.0264 4.7304 23.4486 8.66671 23.4486 14.7916V15.1322H23.4288Z"/>
</svg>
