<svg viewBox="0 0 16 16" fill="none" xmlns="http://www.w3.org/2000/svg">
<path d="M10.907 9.65361H10.2468L10.0128 9.42799C10.8317 8.47536 11.3248 7.23861 11.3248 5.89322C11.3248 2.89327 8.89306 0.461548 5.8931 0.461548C2.89315 0.461548 0.461426 2.89327 0.461426 5.89322C0.461426 8.89318 2.89315 11.3249 5.8931 11.3249C7.23849 11.3249 8.47524 10.8319 9.42787 10.0129L9.65349 10.2469V10.9071L13.8317 15.0769L15.0768 13.8318L10.907 9.65361ZM5.8931 9.65361C3.81235 9.65361 2.13271 7.97397 2.13271 5.89322C2.13271 3.81247 3.81235 2.13283 5.8931 2.13283C7.97385 2.13283 9.65349 3.81247 9.65349 5.89322C9.65349 7.97397 7.97385 9.65361 5.8931 9.65361Z" />
</svg>
