<svg viewBox="0 0 81 21" fill="none" xmlns="http://www.w3.org/2000/svg">
    <title>Paypal</title>
    <path d="M10.1034 0H3.74105C3.30567 0 2.93541 0.296728 2.8675 0.699928L0.294277 16.005C0.24311 16.3069 0.492432 16.5792 0.818968 16.5792H3.85641C4.29179 16.5792 4.66205 16.2825 4.72997 15.8784L5.42397 11.7504C5.49096 11.3463 5.86215 11.0496 6.2966 11.0496H8.31071C12.5017 11.0496 14.9205 9.14707 15.5522 5.37688C15.8369 3.72742 15.5643 2.43142 14.741 1.52378C13.8367 0.527128 12.2329 0 10.1034 0ZM10.8374 5.58982C10.4895 7.7315 8.74516 7.7315 7.05852 7.7315H6.09844L6.77198 3.73179C6.81199 3.49004 7.03526 3.312 7.29575 3.312H7.73578C8.8847 3.312 9.96851 3.312 10.5286 3.9264C10.8625 4.29295 10.9649 4.83753 10.8374 5.58982Z"
          fill="#18C9BE"/>
    <path d="M27.9741 5.36743H25.1C24.8552 5.36743 24.6437 5.54371 24.606 5.78307L24.4787 6.57459L24.2777 6.28771C23.6555 5.39854 22.2681 5.10129 20.8833 5.10129C17.7073 5.10129 14.9947 7.4698 14.4663 10.7923C14.1917 12.4496 14.5822 14.0344 15.537 15.1396C16.4128 16.1558 17.666 16.5792 19.157 16.5792C21.7161 16.5792 23.1351 14.959 23.1351 14.959L23.007 15.7453C22.9587 16.0461 23.1939 16.3157 23.5002 16.3157H26.0891C26.5007 16.3157 26.8482 16.0219 26.9131 15.6218L28.4665 5.93601C28.5156 5.6379 28.2813 5.36743 27.9741 5.36743ZM23.968 10.8752C23.6906 12.492 22.3874 13.5773 20.7253 13.5773C19.8907 13.5773 19.2237 13.3138 18.7955 12.8143C18.3707 12.3183 18.2092 11.6123 18.3444 10.826C18.6033 9.22307 19.9284 8.10233 21.5651 8.10233C22.3813 8.10233 23.0447 8.36934 23.4818 8.87311C23.9197 9.38207 24.0935 10.0924 23.968 10.8752Z"
          fill="#18C9BE"/>
    <path d="M44.6196 5.10129H41.6897C41.4102 5.10129 41.1475 5.24088 40.9891 5.47442L36.9481 11.4571L35.2352 5.70797C35.1274 5.34825 34.7972 5.10129 34.4232 5.10129H31.5441C31.1942 5.10129 30.9511 5.44489 31.0624 5.77597L34.2897 15.2949L31.2556 19.5999C31.017 19.939 31.2574 20.4052 31.6696 20.4052H34.5959C34.8737 20.4052 35.1337 20.2692 35.2913 20.0401L45.0363 5.90214C45.2695 5.5639 45.0301 5.10129 44.6196 5.10129Z"
          fill="#18C9BE"/>
    <path d="M54.9437 0H48.5801C48.1456 0 47.7754 0.296728 47.7075 0.699928L45.1341 16.005C45.083 16.3069 45.3323 16.5792 45.657 16.5792H48.9225C49.2258 16.5792 49.4853 16.3715 49.5328 16.0887L50.2631 11.7504C50.3301 11.3463 50.7013 11.0496 51.1358 11.0496H53.149C57.3412 11.0496 59.7591 9.14707 60.3918 5.37688C60.6774 3.72742 60.403 2.43142 59.5796 1.52378C58.6762 0.527128 57.0732 0 54.9437 0ZM55.6777 5.58982C55.3307 7.7315 53.5863 7.7315 51.8987 7.7315H50.9395L51.614 3.73179C51.654 3.49004 51.8754 3.312 52.1368 3.312H52.5769C53.7249 3.312 54.8097 3.312 55.3698 3.9264C55.7038 4.29295 55.8052 4.83753 55.6777 5.58982Z"
          fill="#18C9BE"/>
    <path d="M72.8109 5.36743H69.9384C69.6918 5.36743 69.482 5.54371 69.4452 5.78307L69.3179 6.57459L69.1161 6.28771C68.4938 5.39854 67.1072 5.10129 65.7223 5.10129C62.5462 5.10129 59.8343 7.4698 59.306 10.7923C59.0321 12.4496 59.4209 14.0344 60.3758 15.1396C61.2534 16.1558 62.5049 16.5792 63.996 16.5792C66.5552 16.5792 67.9743 14.959 67.9743 14.959L67.8461 15.7453C67.7979 16.0461 68.0331 16.3157 68.3411 16.3157H70.9292C71.3391 16.3157 71.6884 16.0219 71.7525 15.6218L73.3067 5.93601C73.3541 5.6379 73.1189 5.36743 72.8109 5.36743ZM68.8045 10.8752C68.5289 12.492 67.2239 13.5773 65.5617 13.5773C64.7288 13.5773 64.0601 13.3138 63.6318 12.8143C63.207 12.3183 63.0473 11.6123 63.1807 10.826C63.4413 9.22307 64.7648 8.10233 66.4016 8.10233C67.2178 8.10233 67.8813 8.36934 68.3183 8.87311C68.758 9.38207 68.9318 10.0924 68.8045 10.8752Z"
          fill="#18C9BE"/>
    <path d="M77.1308 0.420633L74.6002 16.005C74.5506 16.3069 74.7922 16.5792 75.1069 16.5792H77.651C78.0738 16.5792 78.4327 16.2825 78.4976 15.8785L80.993 0.575098C81.0426 0.27315 80.801 0 80.4863 0H77.6375C77.386 0.000872682 77.1696 0.1789 77.1308 0.420633Z"
          fill="#18C9BE"/>
</svg>
