<svg viewBox="0 0 128 177" fill="none" xmlns="http://www.w3.org/2000/svg">
    <path class="svg-primary"
          d="M74.2186 96.5329H82.8837C84.5163 89.6971 87.5302 84.7257 93.8093 80.2514C103.228 73.2914 108 67.6986 108 58.75C108 47.5643 98.8326 37 80.6233 37C64.5488 37 54 47.1914 54 58.0043C54 64.0943 58.2698 68.4443 63.9209 68.4443C69.6977 68.4443 72.9628 64.0943 72.9628 59.3714C72.9628 55.7671 70.4512 52.2871 66.9349 50.92C68.693 47.0671 73.4651 44.83 79.2419 44.83C87.0279 44.83 91.6744 49.6771 91.6744 57.1343C91.6744 65.3371 86.5256 69.4386 81.7535 75.4043C76.8558 81.6186 74.3442 88.8271 74.2186 96.5329ZM78.7395 124C84.1395 124 88.2837 119.899 88.2837 114.803C88.2837 109.831 84.1395 105.73 78.8651 105.73C73.4651 105.73 69.1953 109.831 69.1953 114.927C69.1953 119.899 73.4651 124 78.7395 124Z"
          fill="#18C3C3"/>
    <path class="svg-secondary"
          d="M41.2326 32.8457H46.0465C46.9535 29.0743 48.6279 26.3314 52.1163 23.8629C57.3488 20.0229 60 16.9371 60 12C60 5.82857 54.907 0 44.7907 0C35.8605 0 30 5.62285 30 11.5886C30 14.9486 32.3721 17.3486 35.5116 17.3486C38.7209 17.3486 40.5349 14.9486 40.5349 12.3429C40.5349 10.3543 39.1395 8.43428 37.186 7.68C38.1628 5.55428 40.814 4.32 44.0233 4.32C48.3488 4.32 50.9302 6.99429 50.9302 11.1086C50.9302 15.6343 48.0698 17.8971 45.4186 21.1886C42.6977 24.6171 41.3023 28.5943 41.2326 32.8457ZM43.7442 48C46.7442 48 49.0465 45.7371 49.0465 42.9257C49.0465 40.1829 46.7442 37.92 43.814 37.92C40.814 37.92 38.4419 40.1829 38.4419 42.9943C38.4419 45.7371 40.814 48 43.7442 48Z"
          fill="#5DD5D5"/>
    <path class="svg-secondary"
          d="M11.2326 90.8457H16.0465C16.9535 87.0743 18.6279 84.3314 22.1163 81.8629C27.3488 78.0229 30 74.9371 30 70C30 63.8286 24.907 58 14.7907 58C5.86047 58 0 63.6229 0 69.5886C0 72.9486 2.37209 75.3486 5.51163 75.3486C8.72093 75.3486 10.5349 72.9486 10.5349 70.3429C10.5349 68.3543 9.13953 66.4343 7.18605 65.68C8.16279 63.5543 10.814 62.32 14.0233 62.32C18.3488 62.32 20.9302 64.9943 20.9302 69.1086C20.9302 73.6343 18.0698 75.8971 15.4186 79.1886C12.6977 82.6171 11.3023 86.5943 11.2326 90.8457ZM13.7442 106C16.7442 106 19.0465 103.737 19.0465 100.926C19.0465 98.1829 16.7442 95.92 13.814 95.92C10.814 95.92 8.44186 98.1829 8.44186 100.994C8.44186 103.737 10.814 106 13.7442 106Z"
          fill="#5DD5D5"/>
    <path class="svg-third"
          d="M108.233 118.846H113.047C113.953 115.074 115.628 112.331 119.116 109.863C124.349 106.023 127 102.937 127 98C127 91.8286 121.907 86 111.791 86C102.86 86 97 91.6229 97 97.5886C97 100.949 99.3721 103.349 102.512 103.349C105.721 103.349 107.535 100.949 107.535 98.3429C107.535 96.3543 106.14 94.4343 104.186 93.68C105.163 91.5543 107.814 90.32 111.023 90.32C115.349 90.32 117.93 92.9943 117.93 97.1086C117.93 101.634 115.07 103.897 112.419 107.189C109.698 110.617 108.302 114.594 108.233 118.846ZM110.744 134C113.744 134 116.047 131.737 116.047 128.926C116.047 126.183 113.744 123.92 110.814 123.92C107.814 123.92 105.442 126.183 105.442 128.994C105.442 131.737 107.814 134 110.744 134Z"
          fill="#BAEDED"/>
    <path class="svg-third"
          d="M93.8628 21.8971H97.2326C97.8674 19.3829 99.0395 17.5543 101.481 15.9086C105.144 13.3486 107 11.2914 107 8C107 3.88571 103.435 0 96.3535 0C90.1023 0 86 3.74857 86 7.72571C86 9.96571 87.6605 11.5657 89.8581 11.5657C92.1047 11.5657 93.3744 9.96571 93.3744 8.22857C93.3744 6.90285 92.3977 5.62286 91.0302 5.12C91.714 3.70286 93.5698 2.88 95.8163 2.88C98.8442 2.88 100.651 4.66286 100.651 7.40571C100.651 10.4229 98.6488 11.9314 96.793 14.1257C94.8884 16.4114 93.9116 19.0629 93.8628 21.8971ZM95.6209 32C97.7209 32 99.3326 30.4914 99.3326 28.6171C99.3326 26.7886 97.7209 25.28 95.6698 25.28C93.5698 25.28 91.9093 26.7886 91.9093 28.6629C91.9093 30.4914 93.5698 32 95.6209 32Z"
          fill="#BAEDED"/>
    <path class="svg-secondary"
          d="M69.3605 163.687H73.3721C74.1279 160.623 75.5233 158.394 78.4302 156.389C82.7907 153.269 85 150.761 85 146.75C85 141.736 80.7558 137 72.3256 137C64.8837 137 60 141.569 60 146.416C60 149.146 61.9767 151.096 64.593 151.096C67.2674 151.096 68.7791 149.146 68.7791 147.029C68.7791 145.413 67.6163 143.853 65.9884 143.24C66.8023 141.513 69.0116 140.51 71.686 140.51C75.2907 140.51 77.4419 142.683 77.4419 146.026C77.4419 149.703 75.0581 151.541 72.8488 154.216C70.5814 157.001 69.4186 160.233 69.3605 163.687ZM71.4535 176C73.9535 176 75.8721 174.161 75.8721 171.877C75.8721 169.649 73.9535 167.81 71.5116 167.81C69.0116 167.81 67.0349 169.649 67.0349 171.933C67.0349 174.161 69.0116 176 71.4535 176Z"
          fill="#5DD5D5"/>
</svg>
