<svg viewBox="0 0 30 30" fill="none" xmlns="http://www.w3.org/2000/svg">
<path d="M26.7625 14.475L15.5125 3.225C15.0625 2.775 14.4375 2.5 13.75 2.5H5C3.625 2.5 2.5 3.625 2.5 5V13.75C2.5 14.4375 2.775 15.0625 3.2375 15.525L14.4875 26.775C14.9375 27.225 15.5625 27.5 16.25 27.5C16.9375 27.5 17.5625 27.225 18.0125 26.7625L26.7625 18.0125C27.225 17.5625 27.5 16.9375 27.5 16.25C27.5 15.5625 27.2125 14.925 26.7625 14.475ZM6.875 8.75C5.8375 8.75 5 7.9125 5 6.875C5 5.8375 5.8375 5 6.875 5C7.9125 5 8.75 5.8375 8.75 6.875C8.75 7.9125 7.9125 8.75 6.875 8.75Z" fill="#A182E9"/>
</svg>
