<svg width="20" height="20" viewBox="0 0 20 20" fill="none" xmlns="http://www.w3.org/2000/svg">
<path d="M7.1661 14.4531C7.1661 15.8597 8.30637 17 9.71296 17V17C11.1195 17 12.2598 15.8597 12.2598 14.4531V13.0853C12.2598 11.6787 11.1195 10.5385 9.71296 10.5385V10.5385C8.30637 10.5385 7.1661 11.6787 7.1661 13.0853V14.4531ZM1.05365 14.4531C1.05365 15.8597 2.19392 17 3.6005 17V17C5.00709 17 6.14736 15.8597 6.14736 14.4531V5.54685C6.14736 4.14027 5.00709 3 3.6005 3V3C2.19392 3 1.05365 4.14027 1.05365 5.54685V14.4531ZM13.2786 14.4531C13.2786 15.8597 14.4188 17 15.8254 17V17C17.232 17 18.3723 15.8597 18.3723 14.4531V13.0853C18.3723 11.6787 17.232 10.5385 15.8254 10.5385V10.5385C14.4188 10.5385 13.2786 11.6787 13.2786 13.0853V14.4531ZM10.3969 3C8.61257 3 7.1661 4.44647 7.1661 6.23077V6.23077C7.1661 8.01507 8.61257 9.46154 10.3969 9.46154H15.1415C16.9258 9.46154 18.3723 8.01507 18.3723 6.23077V6.23077C18.3723 4.44647 16.9258 3 15.1415 3H10.3969Z" fill="#B09AE3"/>
</svg>
