<svg width="20" height="20" viewBox="0 0 20 20" fill="none" xmlns="http://www.w3.org/2000/svg">
<path d="M16.9193 2.54442C16.5231 2.12389 15.8868 2.32993 15.4862 2.74625L2.72247 16.0122C2.32562 16.4247 2.13204 17.0551 2.5204 17.4756C2.91446 17.8687 3.53047 17.6792 3.91655 17.2782L16.7327 3.96591C17.1161 3.56765 17.2984 2.94682 16.9193 2.54442ZM9.98145 2C9.74433 2 9.51744 2.09656 9.35303 2.26743L2.25945 9.64011C2.10313 9.80258 2.01581 10.0193 2.01581 10.2447C2.01581 11.0298 2.97198 11.4151 3.51629 10.8494L10.6099 3.47669C11.1429 2.92266 10.7503 2 9.98145 2ZM3.72629 2C2.78552 2 2.01581 2.8 2.01581 3.77778C2.01581 4.42268 2.80127 4.73919 3.24841 4.27446L4.25083 3.2326C4.69578 2.77014 4.36804 2 3.72629 2ZM15.6996 18C16.17 18 16.5977 17.8044 16.9055 17.4756C17.222 17.1556 17.4101 16.7111 17.4101 16.2222C17.4101 15.5773 16.6247 15.2608 16.1775 15.7255L15.1751 16.7674C14.7302 17.2299 15.0579 18 15.6996 18ZM8.81606 16.5233C8.283 17.0773 8.67564 18 9.44448 18C9.6816 18 9.9085 17.9034 10.0729 17.7326L17.1665 10.3599C17.3228 10.1974 17.4101 9.98072 17.4101 9.75526C17.4101 8.9702 16.454 8.5849 15.9096 9.15063L8.81606 16.5233Z" fill="#B09AE3"/>
</svg>
