<svg xmlns="http://www.w3.org/2000/svg" viewBox="0 0 1062.75 872.64"><defs><style>.a{fill:#fefefe;}.b{fill:#0c0c0c;}</style></defs><title>thank-you</title><path class="a" d="M762.63,193c-3,.12-4.62,1.89-4.4,4.69a5.36,5.36,0,0,0,5.09,5,5,5,0,0,0,4.82-5.18C768,195,765.4,192.91,762.63,193Z"/><path class="a" d="M635.32,615.05c0-3.55-1.54-5.68-4.1-5.7s-5.07,2.75-5,5.73a5,5,0,0,0,4.89,4.56A4.5,4.5,0,0,0,635.32,615.05Z"/><path class="a" d="M749.52,166a4.59,4.59,0,0,0,4.74,4.62,5.15,5.15,0,0,0,4.37-5.11,5,5,0,0,0-4.63-4.3A4.35,4.35,0,0,0,749.52,166Z"/><path class="a" d="M600.43,605.94a4.62,4.62,0,0,0,4.92-4.46c0-2.37-2.52-4.94-4.75-4.86a5.75,5.75,0,0,0-5,5.28C595.73,604,598,605.93,600.43,605.94Z"/><path class="a" d="M792,219.13c2.54.05,5.23-2.16,5.22-4.3s-2.32-4.19-4.67-4.3a4,4,0,0,0-4.44,4.19C788.15,217,790,219.08,792,219.13Z"/><path class="a" d="M636,113.25c.1-2.57-1.33-4.12-3.8-4.14a3.57,3.57,0,0,0-3.76,3.68c.06,2,2.14,4.28,4,4.41S635.89,115.61,636,113.25Z"/><path class="a" d="M273.24,574a4.47,4.47,0,0,0-4-4.29,4.3,4.3,0,0,0-4.46,3.78c-.05,1.71,2.28,4.17,4.11,4.34A4,4,0,0,0,273.24,574Z"/><path class="a" d="M660.48,630.84c2.89,0,4.56-1.41,4.69-4,.12-2.27-1.23-3.57-3.74-3.61-2.72,0-4.65,1.62-4.65,4S658,630.83,660.48,630.84Z"/><path class="a" d="M663.29,97.31a4,4,0,0,0-4.33,3.77,4.15,4.15,0,0,0,4.06,4.07,4.84,4.84,0,0,0,4.1-4.27C667.15,98.71,665.68,97.34,663.29,97.31Z"/><path class="a" d="M248.51,554.12a4,4,0,0,0,3.55-4.47,3.43,3.43,0,0,0-3.7-3.14,3.93,3.93,0,0,0-3.86,4.19A3.67,3.67,0,0,0,248.51,554.12Z"/><path class="a" d="M219.55,531.77c0-2-1.4-3.72-3.1-3.74a4.18,4.18,0,0,0-4.11,4c-.08,2.29,1.39,4,3.36,4A4.07,4.07,0,0,0,219.55,531.77Z"/><path class="a" d="M512.53,637.33a4.11,4.11,0,0,0-4.28-3.9c-2.06.14-2.87,1.5-3,3.32a3.66,3.66,0,1,0,7.29.58Z"/><path class="a" d="M491.61,576.8c-.08-2.2-1.6-3.46-3.94-3.25a3.18,3.18,0,0,0-3.19,3.52c.15,1.86,2.2,4,3.79,3.92C490.06,580.91,491.69,578.87,491.61,576.8Z"/><path class="a" d="M146.68,496.42a4,4,0,0,0,4.08-3.82,3.27,3.27,0,0,0-3.51-3.35,4.15,4.15,0,0,0-3.53,4.14A2.91,2.91,0,0,0,146.68,496.42Z"/><path class="a" d="M422.13,311.35a4,4,0,0,0-3.65-4c-2.09-.08-3.38,1.12-3.57,3.3-.21,2.39,1,4,3.2,4.19A3.74,3.74,0,0,0,422.13,311.35Z"/><path class="a" d="M824.85,256.34a3.26,3.26,0,0,0-3.65,3.1,3.53,3.53,0,0,0,3.06,3.77c1.86.19,4.23-1.52,4.36-3.15C828.75,258.22,827,256.43,824.85,256.34Z"/><path class="a" d="M147.53,587.8a3.2,3.2,0,0,0-2.84,3.38c.09,2.36,1.53,3.77,3.71,3.64a3.44,3.44,0,0,0,3-3.79A4.52,4.52,0,0,0,147.53,587.8Z"/><path class="a" d="M248.61,365.49c1.77-.16,3.39-2.45,3-4.45-.28-1.67-1.23-2.71-3-2.6-2.07.12-4,2.12-3.84,3.81A3.94,3.94,0,0,0,248.61,365.49Z"/><path class="a" d="M602.75,123a3,3,0,0,0-2.82,3.24c.11,1.55,2.2,3.08,3.93,2.89s3.32-1.76,3-3.25C606.38,123.82,604.85,123,602.75,123Z"/><path class="a" d="M498.17,611.54a3.54,3.54,0,0,0,3.39-3.43,3.64,3.64,0,0,0-3.86-3.54c-2.3.24-2.8,2-2.9,3.89S495.35,611.71,498.17,611.54Z"/><path class="a" d="M443.26,303.82a3.55,3.55,0,0,0,.18-7.08,3.83,3.83,0,0,0-3.45,3.55A3.26,3.26,0,0,0,443.26,303.82Z"/><path class="a" d="M914.18,226.9a3.81,3.81,0,0,0-3-4.17,3,3,0,0,0-3.31,2.8c-.07,1.74,1.63,3.78,3.23,3.63S914,228.43,914.18,226.9Z"/><path class="a" d="M469.26,289.71a3.2,3.2,0,0,0-3.58-3.24,3.11,3.11,0,0,0-3.21,3.13c-.09,1.57,1.92,3.3,3.73,3.33A3,3,0,0,0,469.26,289.71Z"/><path class="a" d="M282.73,600.46a2.75,2.75,0,0,0-2.78-2.71,3.28,3.28,0,0,0-3.16,3.58,2.44,2.44,0,0,0,2.95,2.49A3.1,3.1,0,0,0,282.73,600.46Z"/><path class="a" d="M243.19,381.31c-.17-1.29-.65-2.83-2.47-2.93a3.08,3.08,0,0,0-3.37,3,2.53,2.53,0,0,0,2.42,3.12A3.18,3.18,0,0,0,243.19,381.31Z"/><path class="a" d="M167.5,487.76c-1.69.1-2.8.89-2.94,2.7s1.16,2.67,2.76,2.82a2.57,2.57,0,0,0,3-2.57C170.43,489,169.13,488.13,167.5,487.76Z"/><path class="a" d="M808,278.6c1.91,0,3.86-1.62,3.64-3.2a2.74,2.74,0,0,0-2.66-2.47c-2-.12-2.92,1.24-3.12,3.05C805.65,277.48,806.23,278.55,808,278.6Z"/><path class="a" d="M165.8,572.75c0-1.33-.44-2.22-1.91-2.31s-2.64.71-2.67,2.2a2.08,2.08,0,0,0,2.29,2.07C164.86,574.75,165.71,574.19,165.8,572.75Z"/><path class="a" d="M227.59,402.05c1.79-.17,2.89-.95,2.8-2.49s-1.08-2.92-2.82-2.75a2.61,2.61,0,0,0-2.52,3.05C225.22,401.43,226.53,401.85,227.59,402.05Z"/><path class="a" d="M211.31,418.54a3,3,0,0,0,2.59-3.09c-.13-1.67-1-2.77-2.76-2.79-1.46,0-2.78,1.92-2.55,3.61S209.94,418.38,211.31,418.54Z"/><path class="a" d="M183.16,564.73c1.74-.06,2-1.46,2.29-2.68s-.59-1.29-1.42-1.36a1.94,1.94,0,0,0-2.36,1.87A1.84,1.84,0,0,0,183.16,564.73Z"/><path class="a" d="M191.65,436.22c1.42-.31,2.54-.9,2.43-2.55a2.29,2.29,0,0,0-2.55-2.37,2.22,2.22,0,0,0-2.43,2.46A2.61,2.61,0,0,0,191.65,436.22Z"/><path class="a" d="M873.36,229.14c-1.25.2-2.27.8-2.28,2.14,0,1.57,1,2.33,2.55,2.4s1.88-1.07,1.85-2.29A2.13,2.13,0,0,0,873.36,229.14Z"/><path class="a" d="M795.11,295.43A2.2,2.2,0,0,0,797,293c-.05-1.3-.94-1.57-2-1.6-1.3,0-2.31.45-2.21,1.9C792.86,294.61,793.79,295.26,795.11,295.43Z"/><path class="a" d="M890.92,228.5c0,1.29.53,2.1,1.66,2.19a2.16,2.16,0,0,0,2.59-1.65,1.83,1.83,0,0,0-1.9-2.24A2.06,2.06,0,0,0,890.92,228.5Z"/><path class="b" d="M762.63,193c2.77-.12,5.35,2,5.51,4.53a5,5,0,0,1-4.82,5.18,5.36,5.36,0,0,1-5.09-5C758,194.92,759.67,193.15,762.63,193Z"/><path class="b" d="M635.32,615.05a4.5,4.5,0,0,1-4.17,4.59,5,5,0,0,1-4.89-4.56c-.11-3,2.27-5.74,5-5.73S635.31,611.5,635.32,615.05Z"/><path class="b" d="M749.52,166a4.35,4.35,0,0,1,4.48-4.79,5,5,0,0,1,4.63,4.3,5.15,5.15,0,0,1-4.37,5.11A4.59,4.59,0,0,1,749.52,166Z"/><path class="b" d="M600.43,605.94c-2.4,0-4.7-2-4.78-4a5.75,5.75,0,0,1,5-5.28c2.23-.08,4.74,2.49,4.75,4.86A4.62,4.62,0,0,1,600.43,605.94Z"/><path class="b" d="M792,219.13c-2,0-3.84-2.1-3.89-4.41a4,4,0,0,1,4.44-4.19c2.35.11,4.66,2.23,4.67,4.3S794.53,219.18,792,219.13Z"/><path class="b" d="M636,113.25c-.08,2.36-1.63,4.08-3.53,4s-4-2.42-4-4.41a3.57,3.57,0,0,1,3.76-3.68C634.64,109.13,636.07,110.68,636,113.25Z"/><path class="b" d="M273.24,574a4,4,0,0,1-4.33,3.83c-1.83-.17-4.16-2.63-4.11-4.34a4.3,4.3,0,0,1,4.46-3.78A4.47,4.47,0,0,1,273.24,574Z"/><path class="b" d="M660.48,630.84c-2.53,0-3.69-1.13-3.7-3.58s1.93-4.07,4.65-4c2.51,0,3.86,1.34,3.74,3.61C665,629.43,663.37,630.85,660.48,630.84Z"/><path class="b" d="M663.29,97.31c2.39,0,3.86,1.4,3.83,3.57a4.84,4.84,0,0,1-4.1,4.27,4.15,4.15,0,0,1-4.06-4.07A4,4,0,0,1,663.29,97.31Z"/><path class="b" d="M248.51,554.12a3.67,3.67,0,0,1-4-3.42,3.93,3.93,0,0,1,3.86-4.19,3.43,3.43,0,0,1,3.7,3.14A4,4,0,0,1,248.51,554.12Z"/><path class="b" d="M219.55,531.77A4.07,4.07,0,0,1,215.7,536c-2,0-3.44-1.69-3.36-4a4.18,4.18,0,0,1,4.11-4C218.15,528.05,219.56,529.75,219.55,531.77Z"/><path class="b" d="M512.53,637.33a3.66,3.66,0,1,1-7.29-.58c.14-1.82.95-3.18,3-3.32A4.11,4.11,0,0,1,512.53,637.33Z"/><path class="b" d="M491.61,576.8c.08,2.07-1.55,4.11-3.34,4.19-1.59.06-3.64-2.06-3.79-3.92a3.18,3.18,0,0,1,3.19-3.52C490,573.34,491.53,574.6,491.61,576.8Z"/><path class="b" d="M146.68,496.42a2.91,2.91,0,0,1-3-3,4.15,4.15,0,0,1,3.53-4.14,3.27,3.27,0,0,1,3.51,3.35A4,4,0,0,1,146.68,496.42Z"/><path class="b" d="M422.13,311.35a3.74,3.74,0,0,1-4,3.5c-2.19-.2-3.41-1.8-3.2-4.19.19-2.18,1.48-3.38,3.57-3.3A4,4,0,0,1,422.13,311.35Z"/><path class="b" d="M824.85,256.34c2.1.09,3.9,1.88,3.77,3.72-.13,1.63-2.5,3.34-4.36,3.15a3.53,3.53,0,0,1-3.06-3.77A3.26,3.26,0,0,1,824.85,256.34Z"/><path class="b" d="M147.53,587.8a4.52,4.52,0,0,1,3.9,3.23,3.44,3.44,0,0,1-3,3.79c-2.18.13-3.62-1.28-3.71-3.64A3.2,3.2,0,0,1,147.53,587.8Z"/><path class="b" d="M248.61,365.49a3.94,3.94,0,0,1-3.82-3.24c-.19-1.69,1.77-3.69,3.84-3.81,1.8-.11,2.75.93,3,2.6C252,363,250.38,365.33,248.61,365.49Z"/><path class="b" d="M602.75,123c2.1,0,3.63.8,4.1,2.88.33,1.49-1.18,3-3,3.25s-3.82-1.34-3.93-2.89A3,3,0,0,1,602.75,123Z"/><path class="b" d="M498.17,611.54c-2.82.17-3.47-1.25-3.37-3.08s.6-3.65,2.9-3.89a3.64,3.64,0,0,1,3.86,3.54A3.54,3.54,0,0,1,498.17,611.54Z"/><path class="b" d="M443.26,303.82a3.26,3.26,0,0,1-3.27-3.53,3.83,3.83,0,0,1,3.45-3.55,3.55,3.55,0,0,1-.18,7.08Z"/><path class="b" d="M914.18,226.9c-.18,1.53-1.55,2.11-3,2.26s-3.3-1.89-3.23-3.63a3,3,0,0,1,3.31-2.8A3.81,3.81,0,0,1,914.18,226.9Z"/><path class="b" d="M469.26,289.71a3,3,0,0,1-3.06,3.22c-1.81,0-3.82-1.76-3.73-3.33a3.11,3.11,0,0,1,3.21-3.13A3.2,3.2,0,0,1,469.26,289.71Z"/><path class="b" d="M282.73,600.46a3.1,3.1,0,0,1-3,3.36,2.44,2.44,0,0,1-2.95-2.49,3.28,3.28,0,0,1,3.16-3.58A2.75,2.75,0,0,1,282.73,600.46Z"/><path class="b" d="M243.19,381.31a3.18,3.18,0,0,1-3.42,3.17,2.53,2.53,0,0,1-2.42-3.12,3.08,3.08,0,0,1,3.37-3C242.54,378.48,243,380,243.19,381.31Z"/><path class="b" d="M167.5,487.76c1.63.37,2.93,1.2,2.85,2.95a2.57,2.57,0,0,1-3,2.57c-1.6-.15-2.91-.87-2.76-2.82S165.81,487.86,167.5,487.76Z"/><path class="b" d="M808,278.6c-1.72-.05-2.3-1.12-2.14-2.62.2-1.81,1.12-3.17,3.12-3.05a2.74,2.74,0,0,1,2.66,2.47C811.81,277,809.86,278.65,808,278.6Z"/><path class="b" d="M165.8,572.75c-.09,1.44-.94,2-2.29,2a2.08,2.08,0,0,1-2.29-2.07c0-1.49,1.09-2.29,2.67-2.2S165.85,571.42,165.8,572.75Z"/><path class="b" d="M227.59,402.05c-1.06-.2-2.37-.62-2.54-2.19a2.61,2.61,0,0,1,2.52-3.05c1.74-.17,2.72,1.15,2.82,2.75S229.38,401.88,227.59,402.05Z"/><path class="b" d="M211.31,418.54c-1.37-.16-2.5-.7-2.72-2.27s1.09-3.62,2.55-3.61c1.76,0,2.63,1.12,2.76,2.79A3,3,0,0,1,211.31,418.54Z"/><path class="b" d="M183.16,564.73a1.84,1.84,0,0,1-1.49-2.17,1.94,1.94,0,0,1,2.36-1.87c.83.07,1.75.16,1.42,1.36S184.9,564.67,183.16,564.73Z"/><path class="b" d="M191.65,436.22a2.61,2.61,0,0,1-2.55-2.46,2.22,2.22,0,0,1,2.43-2.46,2.29,2.29,0,0,1,2.55,2.37C194.19,435.32,193.07,435.91,191.65,436.22Z"/><path class="b" d="M873.35,229.14a2.13,2.13,0,0,1,2.13,2.25c0,1.22-.24,2.36-1.85,2.29s-2.56-.83-2.55-2.4C871.09,229.94,872.11,229.34,873.35,229.14Z"/><path class="b" d="M795.11,295.43c-1.32-.17-2.25-.82-2.35-2.1-.1-1.45.91-1.94,2.21-1.9,1,0,1.93.3,2,1.6A2.2,2.2,0,0,1,795.11,295.43Z"/><path class="b" d="M890.92,228.5a2.06,2.06,0,0,1,2.35-1.7,1.83,1.83,0,0,1,1.9,2.24,2.16,2.16,0,0,1-2.59,1.65C891.45,230.6,891,229.79,890.92,228.5Z"/><path class="b" d="M699.91,632.61a3,3,0,0,1-3.08-3.18,3.06,3.06,0,0,1,3.43-3.32c1.89.13,3.15,1.09,3.19,3.07A3.54,3.54,0,0,1,699.91,632.61Z"/><path class="b" d="M522.63,707.46a183.23,183.23,0,0,1-2.26,31.8,117.35,117.35,0,0,1-13.16,36.92,71.13,71.13,0,0,1-21.33,24.58c-5.91,4.17-13.51,3.4-17.51-1.66A7.93,7.93,0,0,1,466.6,795c-.68-5.86-.17-11.39,3.21-16.6,3.49-5.38,6.21-11.25,9.63-16.67,2.91-4.6,5.17-9.64,8.93-13.71,2.53-2.75,3-6.61,5-9.72,8.3-12.81,13.22-27.11,17.82-41.54a28.82,28.82,0,0,0,1.64-9.28c-.08-5.81,1.36-11.57.34-17.41-.3-1.72.14-3.62,2.25-3.81s3,1.46,3.43,3.49A216.62,216.62,0,0,1,522.63,707.46Zm-43.42,86.72a12.2,12.2,0,0,0,2.06-.5,17.49,17.49,0,0,0,2.59-1.48c8.73-6,14.44-14.53,19.36-23.52a109.76,109.76,0,0,0,10.28-26.3c3.23-13,4-26.06,3.89-39.32-2.63,6.45-3.54,13.36-5.69,19.94-3.83,11.69-9,22.79-14.34,33.82-2.82,5.8-7.3,10.67-9.32,16.91a16,16,0,0,1-1.72,3c-2,3.41-4.15,6.75-5.91,10.27C479.41,789,478.18,791.19,479.21,794.18Z"/><path class="b" d="M767.17,78.65a109.39,109.39,0,0,1,28.51,2c18.55,3.77,35.84,10.13,49.11,24.53a45.09,45.09,0,0,1,6.14,9c2.35,4.25,2.4,8.49-.37,12.19s-7.1,4.61-11.25,4a52.45,52.45,0,0,1-13.25-4c-7.31-3.17-14.12-7.26-21.3-10.64-5.09-2.4-9.85-5.44-14.93-7.94a157,157,0,0,0-25.48-9.72c-6.21-1.8-12.42-3.53-18.75-4.76a101.2,101.2,0,0,0-13.32-1.66c-8.26-.49-16.51-1.21-24.82-.33-3.87.41-7.43,1.71-11.15,2.55-1.4.32-2.67.79-3.47-.7-.91-1.7.09-2.91,1.49-3.69a22.86,22.86,0,0,1,4.1-1.77c14.32-4.62,29.05-7,44-8.2A243.72,243.72,0,0,1,767.17,78.65Zm-27,6c4.91.68,9.87,1.08,14.71,2.1,14.26,3,28.21,7.14,41.43,13.35,12.29,5.78,24.42,11.88,36.74,17.6,3.23,1.5,6.56,3.23,10.39,2.85,1.92-.2,2.59-1,2-3a27.18,27.18,0,0,0-5.77-9.79c-5.42-6.27-12.23-10.63-19.48-14.43-14.46-7.57-30-10.5-46.14-10.65C762.73,82.57,751.46,82.7,740.15,84.66Z"/><path class="b" d="M890.93,238.48c19,.49,36.92,3.67,53.81,11.5a86.45,86.45,0,0,1,19.49,11.93,42,42,0,0,1,11.62,15.92c2,4.8-1.69,14.15-9.25,15.7-7.36,1.51-13.74-.17-19.86-4.16-4.91-3.2-9.08-7.28-13.62-10.92-7-5.56-13.54-11.66-21.24-16.17a92.91,92.91,0,0,0-33.25-11.38,78.35,78.35,0,0,0-22.42.21c-5,.68-10,.3-14.91,1a2.86,2.86,0,0,1-3.26-2.47c-.35-1.77,1.3-2.21,2.5-2.55,6.08-1.68,12.16-3.41,18.31-4.81C869.58,239.83,880.53,239.07,890.93,238.48Zm-9.52,5.46a145.86,145.86,0,0,1,35.14,11.71c5.78,2.86,11,6.73,16.44,10.13,3.08,1.92,6.37,3.56,9.25,5.76,4.75,3.63,10,6.49,14.89,9.85a9.07,9.07,0,0,0,6.71,1.24c2.72-.42,3.35-1.38,2.43-4a25.89,25.89,0,0,0-7.55-11.46A91.56,91.56,0,0,0,925.42,249,120.23,120.23,0,0,0,881.41,243.94Z"/><path class="b" d="M824.32,229.34c-3-.23-6-.4-9-.74-1.15-.13-2.41-.63-2.44-2.06a2.59,2.59,0,0,1,2.44-2.68,16.71,16.71,0,0,1,4.45-.33c9.67,1.05,18.84-1.46,27.95-4.05,3-.87,6.07-1.71,9.11-2.52,7.37-2,13.64-6,19.9-10.06,4.7-3.06,8.88-6.94,14.16-9.09,2-.82,2.36-3.12,4.07-4.25,11-7.32,21.23-15.78,32.72-22.42,3.29-1.9,6.3-4.28,9.47-6.4a24.5,24.5,0,0,1,11.09-4.24c6.79-.68,10,1.73,10.74,8.53s-2.71,12.19-6.35,17.37c-10.33,14.69-25.53,22.38-41.75,28.41-14.68,5.46-29.9,8.75-45.4,10.93-11.37,1.6-22.83,2.26-34.24,3.4A36.88,36.88,0,0,1,824.32,229.34Zm51.52-9.87c1.69.46,3.23-.16,4.82-.48a185.42,185.42,0,0,0,37.05-11.52c12.57-5.36,23.68-12.73,31.59-24.25a29.38,29.38,0,0,0,5.06-11.29,5.4,5.4,0,0,0-1.37-5.1c-1.66-1.51-3.44-.31-5.1.41-.61.26-1.16.65-1.76.94-5.59,2.79-9.78,7.38-14.48,11.31-6.47,5.42-13.47,10.17-19.7,15.91a70,70,0,0,1-7.64,6.34c-6.28,4.31-12.36,8.89-19.24,12.31-2.22,1.11-4.44,2.23-6.68,3.33C877.41,217.86,876.07,217.91,875.84,219.47Z"/><path class="b" d="M111.86,694.58a228.88,228.88,0,0,1,1.66-27.3,241.37,241.37,0,0,1,4.87-28.42,183.58,183.58,0,0,1,8.74-27.41,29.88,29.88,0,0,1,4.67-7.05,1.86,1.86,0,0,1,2.14-.85,2,2,0,0,1,1.21,2.43,7.35,7.35,0,0,1-.74,2.37c-6.1,11.88-6.65,24.56-5.14,37.44,1.29,11,2.6,22.07,5.5,32.79,2.59,9.63,4.15,19.45,5.91,29.21,1.42,7.89,3.06,16,.7,24.17a42.09,42.09,0,0,1-3.24,7.78c-1.4,2.72-4.95,4-8.15,3.39-4.83-.88-7.91-4-10.13-8.07-5.27-9.66-7.45-20.14-8-31A59.76,59.76,0,0,1,111.86,694.58Zm18.57,41.9a9.16,9.16,0,0,0,1.24-5.84,71.48,71.48,0,0,0-1.54-11.33,182.3,182.3,0,0,1-4.71-27.87c-1.36-14-2.71-28-2.57-42.15a17,17,0,0,0-.27-2c-.34.5-.61.73-.67,1-3.44,18.46-5.17,37.1-4,55.86.51,8.4,1.79,16.86,5.69,24.6C125.13,731.92,126.88,734.88,130.43,736.48Z"/><path class="b" d="M106.16,474.47c-12.18-.65-26-2.06-39.11-7.5a56.27,56.27,0,0,1-23.82-18.23c-4.17-5.52-2.83-11.55,3.28-14.9a15.42,15.42,0,0,1,9.56-1.93c6.14.74,12,2.06,17.53,5,9.68,5.14,20.07,8.56,30.39,12.16a120.37,120.37,0,0,0,33.88,6.44A53.06,53.06,0,0,0,170,446.89a11.23,11.23,0,0,1,2.58-1.46c1.13-.35,2.4-.28,3,1,.51,1-.07,1.85-.79,2.65A69.29,69.29,0,0,1,155,463.75C140.22,471.43,124.43,474.28,106.16,474.47Zm38.39-12.12c-3,.19-6,.25-8.9.59-10.7,1.26-21.26-.43-31.49-2.85a143.25,143.25,0,0,1-39.63-15.57c-3.62-2.12-8.1-2.8-12.22-4a5.24,5.24,0,0,0-2.44.15c-3.23.69-4,2.07-2.38,4.94a32.66,32.66,0,0,0,7.1,8.92c7.84,6.83,17,10.82,27.11,12.84,12.75,2.55,25.62,3.59,38.58,2C128.66,468.35,136.91,466.74,144.55,462.35Z"/><path class="b" d="M38.63,520.66A75.61,75.61,0,0,1,16.11,517a30.22,30.22,0,0,1-10.39-5.78c-8.78-7.24-7.24-18,3.17-22.1a21.48,21.48,0,0,1,12.68-.75c5.46,1.19,11,2.3,16.5,3.07,3.17.45,6,1.72,9.12,2.41a189.26,189.26,0,0,0,26.57,3.87c6.29.51,12.59.72,18.87,1.15,9.9.67,19.56,0,28.94-3.44a26.25,26.25,0,0,1,4.32-1.08c1.21-.22,2.37,0,2.84,1.37s-.27,2.2-1.19,3a8.16,8.16,0,0,1-3.1,1.55c-11.63,3.92-23.17,8.18-34.95,11.64a297.88,297.88,0,0,1-31.11,6.87A126.15,126.15,0,0,1,38.63,520.66Zm52.7-15.38a49.9,49.9,0,0,0-5.78,0c-4.45.54-8.85-.37-13.34-.14a118.66,118.66,0,0,1-16.83-.6c-10.86-1-21.78-1.44-32.49-4a27.54,27.54,0,0,0-12.69-.47c-2.87.67-3.46,2-1.83,4.52a8.86,8.86,0,0,0,2.37,2.54,37,37,0,0,0,10.15,5.11A75.35,75.35,0,0,0,48,514.87c12.15-1,24-3.81,35.73-6.71C86.14,507.56,89.06,508,91.33,505.28Z"/><path class="b" d="M161.32,513.46a77.35,77.35,0,0,1,18.36,1.14,17.36,17.36,0,0,1,8.21,3.37,2.09,2.09,0,0,1,.66,2.66,1.72,1.72,0,0,1-2.09.9c-17.06-2.89-32.38,2-46.87,10.52-7.72,4.55-15.35,9.2-22.67,14.4-8.58,6.11-15.91,13.55-23.34,20.9-4.61,4.57-9.19,9.13-15,12.3a10.17,10.17,0,0,1-5.71,1.42,8.42,8.42,0,0,1-7.82-10.42A54.7,54.7,0,0,1,75.61,549.5c9-11.35,20.57-19.07,33.52-25,11.55-5.3,23.81-8,36.31-9.9A156.55,156.55,0,0,1,161.32,513.46Zm-87,59.93c6.48-2.5,10.86-6.9,15.34-11a228.4,228.4,0,0,1,44.22-32c6.46-3.57,12.92-7.11,19.6-10.28A150.56,150.56,0,0,0,113.53,531,75.32,75.32,0,0,0,89.2,547.77c-4.13,4.31-7.89,8.73-10.57,14.21C76.89,565.54,74.76,568.81,74.32,573.39Z"/><path class="b" d="M731.41,786.92c-4.5,0-9.76-1.47-15-3-10.31-3-19.57-8.19-28.91-13.3a212.66,212.66,0,0,1-32-21.93c-4.37-3.57-8.26-7.71-12.36-11.6a13.29,13.29,0,0,1-1-1.15c-1.27-1.49-2.23-3.25-.68-4.89s3.12-.28,4.43.68c9.53,7,20.38,11,31.73,13.86s23.14,4,34.51,7a24.57,24.57,0,0,1,3.34.93c7.46,3.2,15.15,5.84,22.26,9.82a23.77,23.77,0,0,1,7.54,7.15c4.26,5.94,1.87,12.68-5,15.31C737.75,786.81,735.08,786.59,731.41,786.92Zm-59.63-32.54c.12,1.19,1,1.5,1.62,2a166.17,166.17,0,0,0,15.71,9.52c11.47,6.46,23.31,11.94,36.3,14.56,4.28.86,8.61,1,12.74-.65,2.62-1.06,2.8-2.72.55-4.36a24.58,24.58,0,0,0-5.16-3,157.77,157.77,0,0,0-26.21-7.65c-11.2-2.37-22.1-5.3-32.45-10.18A3.1,3.1,0,0,0,671.78,754.38Z"/><path class="b" d="M274.37,172.31c.66,10.6-3.26,19.8-6.13,29.27a157.36,157.36,0,0,0-6.49,30.47c-1.61,16.77.95,33.05,3.32,49.45a12.86,12.86,0,0,0,1.48,4.19,5.32,5.32,0,0,1,.4,3.88c-.27,1-.73,1.91-1.93,1.95a2.33,2.33,0,0,1-2.47-1.31,28.44,28.44,0,0,1-1.71-4.14c-2.56-9.85-7.22-18.93-10.45-28.52-5-14.85-8.9-30-9.42-45.72-.48-14.35,2-28.13,8.88-40.93a32.86,32.86,0,0,1,6.78-8.56,10.24,10.24,0,0,1,17.06,5C274.17,169,274.73,170.84,274.37,172.31Zm-18.59,86.61c-.7-3.47-.8-6.45-1.26-9.32-.78-4.84,0-9.63-.37-14.42-.92-13.58,1.69-26.69,5.27-39.67,1.19-4.29,2.49-8.55,3.52-12.88s2.18-8.64,2-13.14a3.1,3.1,0,0,0-2-3.17,2.94,2.94,0,0,0-3.15.94,30.92,30.92,0,0,0-6,7.24c-5.52,9.63-7.54,20.13-8.09,31-.73,14.26,1.52,28.13,5.75,41.71C252.64,251,253.06,255.05,255.78,258.92Z"/><path class="b" d="M621.31,583.62c-1.15.15-2.29.38-3.45.42s-2.42-.39-2.7-1.71a2.93,2.93,0,0,1,1.42-3,3.63,3.63,0,0,1,1.36-.61c7.79-1.6,13.52-6.89,19.7-11.25,8.14-5.74,16-11.87,23.83-18a72,72,0,0,0,8.15-8c9-9.77,17.25-20.16,27.31-28.83,3.57-3.07,7.5-6.09,12.87-5.25,4.86.76,7.72,3.93,7.77,8.84,0,4.48-1.7,8.42-3.88,12.19-3.19,5.52-7.89,9.77-12,14.51-8.44,9.64-18.56,17.16-29.23,24a68.12,68.12,0,0,1-12.8,6.56c-10.08,3.76-20.1,7.79-30.88,9.38A52.93,52.93,0,0,1,621.31,583.62Zm16.9-8.19c5-.46,8.26-2.39,11.77-3.72,18.74-7.05,35.55-17.11,49.38-31.72,5-5.29,10-10.69,12.88-17.57a10,10,0,0,0,1-5.79c-.52-2.88-2.52-4.1-5-2.71a17.43,17.43,0,0,0-5,4.13c-3.8,4.57-7,9.62-11,14-5.12,5.59-9.74,11.65-15,17.06-6.87,7-15.17,12.19-23.76,16.93C648.56,568.78,643.89,571.92,638.21,575.43Z"/><path class="b" d="M197,724.19a24,24,0,0,1-10.13-4.27c-8.18-5.71-14.16-13.34-19.15-21.94-6.84-11.79-10.43-24.71-13.9-37.7a153,153,0,0,1-5.11-28.89,60.64,60.64,0,0,1,.85-17.32c.32-1.45.8-2.64,2.48-2.5,1.42.12,1.8,1.34,2,2.53.89,5.91,1.19,11.88,2.41,17.76,2.29,11,6.16,21.33,12.72,30.6,4.24,6,9.2,11.29,14,16.79,6.08,7,12,14.17,17.51,21.63a30.09,30.09,0,0,1,5.87,13.61C207.3,720.21,203.59,724.24,197,724.19Zm-37.09-63.11a8.83,8.83,0,0,0,0,2.07,149.42,149.42,0,0,0,6.24,18.34c4.18,10.36,9.35,20.17,17.44,28.1,3.56,3.49,7.43,6.61,12.28,8.2.91.3,1.91,1,2.77.07a2.36,2.36,0,0,0-.07-3.21c-1.61-1.95-2.55-4.28-4-6.28q-10.77-14.57-21.63-29.09c-3.17-4.25-6.38-8.46-9.31-12.89C162.46,664.65,162.1,662.32,159.91,661.08Z"/><path class="b" d="M253.77,326.56c0,2.66.07,5.32,0,8-.06,1.56-.51,3.13-2.45,3.17s-2.63-1.3-2.75-2.94c-1.19-15.77-10.2-27.69-19.39-39.53-5.13-6.6-11.71-11.65-18-17-5-4.28-10.33-8.18-14.85-13-2.56-2.75-4.8-5.52-4.48-9.6.53-6.72,4.5-10.66,11.31-10.85,6.4-.17,12,2.43,17.23,5.77,6,3.82,10.55,9.23,14.42,15,11.86,17.67,17.62,37.42,19,58.54.05.83,0,1.66,0,2.5Zm-7.09-18.16-.75-2.83c-.28-1.12-.55-2.26-.84-3.38-3.64-14.15-9-27.42-18.83-38.59-5.07-5.76-10.94-10.13-18.26-12.49a11.18,11.18,0,0,0-5.91,0c-2.39.54-2.88,2.43-.9,3.92,3.06,2.29,5.95,4.77,8.88,7.22,10.47,8.8,19.94,18.44,27.24,30.15C240.56,297.63,243.09,303.17,246.68,308.4Z"/><path class="b" d="M567.68,807.42c.29-3.58,2.4-7.43,4.94-11.23,6.86-10.28,16.18-18.44,23.78-28.09,9.46-12,19.17-23.81,23-39.09.13-.48.3-1,.47-1.43.33-1,.81-1.91,2-1.91a2.34,2.34,0,0,1,2.31,2.21,15.06,15.06,0,0,1,.58,4.42c-2.44,20-7.8,39.07-17.92,56.6-4.92,8.53-10.6,16.5-18.11,23a28.86,28.86,0,0,1-8,5C573.18,820.05,567.81,816.6,567.68,807.42ZM616,754l-.89-.47-1.53,3a194.31,194.31,0,0,1-17.31,28.34c-4.57,6.05-9.3,12-14.11,17.85-1.63,2-2.45,4.31-3.56,6.51-.56,1.13.15,2.06,1.44,1.65a13.1,13.1,0,0,0,4-2,60.25,60.25,0,0,0,11.93-11.94,106.44,106.44,0,0,0,15-27.39A121.85,121.85,0,0,0,616,754Z"/><path class="b" d="M595.66,35.52c.56,18.45-2.76,36.41-7.11,54.21-1.13,4.66-3.11,9.12-4.78,13.64-.39,1.07-1,2.3-2.45,2-1.8-.31-1.76-1.81-1.58-3.14a35.55,35.55,0,0,1,1-3.85c2.45-9.72,4.11-19.6,2.25-29.55-1.27-6.8-2.48-13.59-4.88-20.26-3-8.21-7.26-16-8.59-24.83a108.85,108.85,0,0,1-1.32-11.36c-.25-5.49,6.06-9.45,11.38-7.21,6.32,2.66,10.35,7.56,12.87,13.8A46.73,46.73,0,0,1,595.66,35.52Zm-18-24.24c2.65,6.35,3.58,12.5,6.22,18.21a33.29,33.29,0,0,1,3.54,12.82c.13,3.26.2,6.87,2.1,9.87.14-1.59.33-3.21.41-4.83.45-8.81.56-17.62-2.89-25.95C585.31,17.22,583.2,13.15,577.66,11.28Z"/><path class="b" d="M631.66,745.36c0-2.07-.08-3.56,0-5.05a2.17,2.17,0,0,1,2.18-2.27,2.33,2.33,0,0,1,2.3,1.58,3.77,3.77,0,0,1,.33.94c.83,6.34,3.69,12,5.85,17.94a91.1,91.1,0,0,0,12.83,23c5.22,7,11.39,13.36,17.1,20a25.73,25.73,0,0,1,5.81,13.9c.86,6.4-5.6,12.29-12.9,9.85a24.59,24.59,0,0,1-9.92-6.52c-5.2-5.37-8.54-11.84-11.27-18.66-3.66-9.14-5.85-18.71-8-28.28C634,762.9,632,754,631.66,745.36ZM668,818.85c-1.58-4.62-2.36-8.87-5.24-12-7.6-8.11-12.53-17.87-17.75-27.49-1.72-3.17-2.62-6.69-4.41-9.1.25,7.38,2.79,14.89,5.4,22.33,2.7,7.7,6.09,15.09,11.93,21.08A17.25,17.25,0,0,0,668,818.85Z"/><path class="b" d="M978.48,214c8,0,15.92.59,23.43,3.68,6.54,2.69,11.59,7,14.37,13.68,2.14,5.14.54,9-4.76,10.48s-10.27,1.85-15.95-.09c-11.41-3.89-22.36-9.06-33.87-12.54-9.26-2.81-19-3.21-28.65-2.24-2.48.25-5,.63-7.45.65-1.9,0-2.52-1.41-1.58-3.08.78-1.4,2.14-1.94,3.5-2.61,5.17-2.51,10.76-3.4,16.3-4.38A231.51,231.51,0,0,1,978.48,214Zm-23.57,6.8a14.51,14.51,0,0,0,2.9.48c6.34.16,12.38,1.92,18.51,3.27a183.86,183.86,0,0,1,25.73,7.28,9.47,9.47,0,0,0,7.58,0,8.22,8.22,0,0,0-2.48-5c-5.24-5.92-12.3-7.7-19.67-8.17A117.11,117.11,0,0,0,954.91,220.84Z"/><path class="b" d="M541,198.39c.27,8.22-2.51,14.48-5.31,20.68-8.48,18.8-21.3,34.29-36.69,47.82-2.75,2.42-5.31,5.05-8.37,7.07a20.25,20.25,0,0,1-3.48,1.9c-.71.29-1.7.51-2.26-.37a2,2,0,0,1,.44-2.68c1.5-1.32,3.15-2.47,4.57-3.87,13.68-13.38,22.11-29.49,26.26-48.22,1.74-7.84,2.31-16,5.23-23.55a10.93,10.93,0,0,0,.44-2.93c.46-5.31,2.42-8,6.48-8.79,4.5-.89,8.85,1.48,10.95,5.9A17.38,17.38,0,0,1,541,198.39Zm-17.79,35.79a.9.9,0,0,0,.49-.29,6.07,6.07,0,0,0,.72-1.67,49,49,0,0,1,3.25-6.43c.78-1.41,1.56-2.83,2.31-4.27.37-.71.74-1.43,1.09-2.16a7.44,7.44,0,0,0,1-2.21c2.12-4.88,4-9.8,4.64-15.11a14.38,14.38,0,0,0-2.24-10,3,3,0,0,0-3.87-1.39c-1.68.73-1.07,2.19-.66,3.43a11,11,0,0,1,.71,4.86c-.63,5.22-1.82,10.35-2.46,15.54a41.59,41.59,0,0,1-2.62,9.84,44.51,44.51,0,0,0-1.51,4.89c-.32,1.29-.6,2.58-.88,3.87a.82.82,0,0,1-.21.46c-.1.1-.25.13-.34.23C522.35,234.17,523.09,234.22,523.25,234.18Z"/><path class="b" d="M659,46.05a15.12,15.12,0,0,1-6.11,9.27c-6.62,4.92-14.24,7.76-21.67,11-10.23,4.53-19.7,10.16-26.9,19-2,2.47-3.53,5.24-5.48,7.73-.77,1-1.45,2.66-3.06,1.83-1.78-.91-1-2.57-.48-4,2.24-6.12,5.56-11.73,8.86-17.27a124.52,124.52,0,0,1,14.59-20.15,68.84,68.84,0,0,1,18.14-14.53,27.88,27.88,0,0,1,13.45-3.22C655.91,35.86,659,38.76,659,46.05ZM614.09,68.32c2.3-2.73,5.78-3.7,8.37-5.85,6.19-5.14,13.6-8.21,20.43-12.25,3.16-1.86,6-3.9,7.66-7.56-2.84-1.09-5.26-.59-7.64.16a37.61,37.61,0,0,0-13.66,7.89C623.42,55.86,618.11,61.45,614.09,68.32Z"/><path class="b" d="M756.84,134.74c0,4.74-4.32,8.51-9.39,8.17-4.87-.33-8.86-2.77-12.43-5.8a242.79,242.79,0,0,0-28.24-21A42.8,42.8,0,0,0,697.2,112c-1.1-.37-2.23-.68-3.31-1.1a2.08,2.08,0,0,1-1.53-2.29,2.2,2.2,0,0,1,2.34-2.11c2,.06,4,.08,6,.3,11.91,1.32,23.72,3.13,34.89,7.77,6.16,2.57,12,5.68,16.79,10.47C755.32,128,756.86,131.36,756.84,134.74Zm-6.48-1.2c1.15-1.25.65-2.34-.11-3.24-1.49-1.77-2.84-3.81-4.7-5.07a71.29,71.29,0,0,0-27-11c5,2.75,10.57,5.46,15.76,8.81C739.68,126.5,744.72,130.51,750.36,133.54Z"/><path class="b" d="M195.52,196.57a35.41,35.41,0,0,1,18,9.32c13.53,13.1,21.29,29.47,26.68,47.17.1.32.28.61.35.94.18.87.12,1.7-.87,2a1.61,1.61,0,0,1-2-1,67.91,67.91,0,0,0-7-10.29,132.8,132.8,0,0,0-11.49-13.1,69.48,69.48,0,0,0-14.84-10.9,55.66,55.66,0,0,1-14.08-10.88c-.56-.62-1.11-1.25-1.61-1.91a7.43,7.43,0,0,1-1.16-8C188.92,196.88,191.72,196.54,195.52,196.57Zm31.25,35.87c-4.47-13.7-20.69-31.82-31.42-30.22C207.21,211.28,218.42,220.39,226.77,232.44Z"/><path class="b" d="M542.84,43.91a17.69,17.69,0,0,1,10.44,4.66c6.6,5.87,10.94,13.28,14.45,21.23,3,6.82,5.91,13.71,6.82,21.23.06.48.34.94.39,1.43a3.11,3.11,0,0,1-1.68,3.34,2.56,2.56,0,0,1-3.12-.92,32.1,32.1,0,0,1-4.1-5.61c-5.18-10.09-14-16.68-22.48-23.57-4.3-3.49-8.23-7.28-8.7-13.28C534.5,47.7,537.84,44.05,542.84,43.91ZM542,51.15c4.22,7.84,12.09,11.42,17.67,18.6C558,61.15,548.75,51.53,542,51.15ZM560.67,70l-.29-.38c-.12.11-.32.22-.33.34s.17.25.27.38Z"/><path class="b" d="M575.62,726.74c-3.31-.81-6.87-1.45-10.06-3.44-5.28-3.28-9.62-7.6-13.8-12.11a143.66,143.66,0,0,1-21-29.53c-.24-.44-.56-.83-.76-1.29-.57-1.26-1-2.59.43-3.54s2.13.3,2.87,1.14c3.26,3.75,6.37,7.63,10.21,10.87a76.67,76.67,0,0,0,22,13.48,78.64,78.64,0,0,1,12.85,6.58,15.39,15.39,0,0,1,6.47,7.31c1.68,4,1,6.74-2.7,8.68A18.13,18.13,0,0,1,575.62,726.74Zm-23.54-20.82.64-.75c-.21.25-.43.49-.65.73,2.2.39,3,2.44,4.33,3.79a53.46,53.46,0,0,0,12,9.68c3.49,1.91,7.21,3.73,11.36.79-.65-2.31-2.35-3.58-4.34-4.49-6.61-3-13.73-5-19.73-9.35C554.61,705.52,553.42,704.9,552.08,705.92Z"/><path class="b" d="M481.91,231.32c.21,7.26-1.47,14.15-4,20.87-2.3,6.05-4.69,12.07-6.85,18.17-.6,1.69-1.23,2.74-3.11,2.23s-1.4-2-1.22-3.29c.33-2.47.93-4.9,1.16-7.37.93-10-.73-19.89-2.49-29.64-1-5.37-1.5-10.83-2.82-16.15-.6-2.42.33-5,1.51-7.17,1.48-2.76,5.49-3.42,8.91-1.66a13.72,13.72,0,0,1,6.89,8.75A54.35,54.35,0,0,1,481.91,231.32ZM475,245.23c2-2.29,1.74-5.19,2.06-7.91a44.44,44.44,0,0,0-2.15-21c-.78-2.12-1.76-3.79-5.09-4.05C473.92,223.14,475.15,234,475,245.23Z"/><path class="b" d="M640.35,597.58a26,26,0,0,0-6.63.31c-1.43.31-2.75.24-3.2-1.43a2.73,2.73,0,0,1,1.87-3.56c.31-.11.6-.3.92-.38,13.22-3.41,26.48-6.8,40.29-5.66,5.4.44,10.93,1,15.61,4.4,4.34,3.11,4.59,6,.64,9.69-3.6,3.37-8,3.57-12.59,3.13-6.52-.61-12.63-2.82-18.83-4.64C652.75,597.76,647,597.44,640.35,597.58Zm28.43-5.53c3.22.68,6.28,3.31,10.43,1.09A25.54,25.54,0,0,0,668.78,592.05Z"/><path class="b" d="M535,734.65c-.22-10.61-.74-19.21-3.19-27.58-.19-.63-.36-1.28-.5-1.92-.25-1.26-1-2.92.79-3.38s2,1.41,2.45,2.56c5.51,14.43,10.51,29,12,44.52A43,43,0,0,1,544.9,767c-.66,2-1.42,3.81-3.71,4.26-2.54.49-4.12-1.18-5.32-3-2.82-4.19-3.2-8.89-2.75-13.84C533.77,747.23,535.23,740,535,734.65Zm7.14,27.56c2.58-9.4.29-18.4-1.86-27.41C540.35,744,540.51,753.15,542.1,762.21Z"/><path class="b" d="M835.62,499.61c5,0,8.55,2.95,9.33,8,1.46,9.49-1.41,18-6.08,26.08-9,15.49-21.64,27.66-35.43,38.75A344.61,344.61,0,0,1,766.63,598a379.79,379.79,0,0,1-37,19.46c-3.46,1.61-6.92,3.25-10.39,4.84-1.68.77-3.38.9-4.24-1.06-.73-1.64.27-2.86,1.69-3.69,4.45-2.59,8.93-5.12,13.34-7.78a122.51,122.51,0,0,0,22.59-17.83c3.65-3.59,7.86-6.65,10.84-10.92,3.79-5.43,8.34-10.28,12.5-15.41,3.77-4.65,7.12-9.6,10.94-14.17a109.1,109.1,0,0,0,7.84-11.47A124.93,124.93,0,0,1,807.67,523a42.84,42.84,0,0,0,3.56-4.77,37.14,37.14,0,0,1,7-7.73c4.58-3.74,8.55-8.37,14.53-10.15A7.36,7.36,0,0,1,835.62,499.61Zm-75.26,95.66c1.94.8,2.78-.27,3.63-.85,17.67-12.14,35.78-23.71,50.94-39.1,8.57-8.69,16.18-18.12,21.08-29.41a30.57,30.57,0,0,0,2.74-14.54c-.08-1,0-2.17-1-2.64s-1.77.58-2.47,1.23a108.44,108.44,0,0,0-14.15,16.37c-7,9.7-14.11,19.29-21.86,28.35-7,8.15-13.93,16.39-21.79,23.79C771.72,583.88,766.92,590.23,760.36,595.27Z"/><path class="a" d="M266.11,26.14l-3.07.72c-5.37,1.25-10.43,3.43-15.64,5.13a274,274,0,0,0-41.59,18,289.1,289.1,0,0,0-48.27,31.67c-10.34,8.34-20.45,16.92-30,26.19-5.85,5.67-11.45,11.54-16.91,17.59-6.34,7-13,13.72-19.42,20.66-5.64,6.12-10,13.21-14.78,20-1.7,2.42-4.12,4.28-5.28,7.13-2,4.92-5.5,9-8.22,13.52Q57.34,196.08,52,205.57a199.63,199.63,0,0,0-9.43,20.23c-3,7.17-6.31,14.24-8.78,21.65Q29.94,259,27,270.8c-1.92,7.86-3.79,15.77-4.3,23.89-.52,8.3-.69,16.62-1.39,24.9-1.48,17.63-1.74,35.21.72,52.77,1.8,12.87,4.12,25.64,9.16,37.72,2.18,5.22,4.88,10.22,9.37,13.92,1,.82,2.25,1.81,3.47.38,1-1.2,0-2.17-.76-3-5.25-5.62-8.23-12.45-10.34-19.7a133.24,133.24,0,0,1-3.22-14.6c-2.92-17-3.89-34-1.75-51.16.76-6.08,1.52-12.17,1.93-18.27.54-8.15,2.36-16.1,3.53-24.14a62.92,62.92,0,0,1,2.33-11.21c2-5.78,3.71-11.63,5.36-17.51,1-3.5,2-7,3.31-10.41,2.53-6.48,5.62-12.74,8-19.29a145.72,145.72,0,0,1,7.22-16.4c1.12-2.22,3.17-3.84,3.83-6.35a38.77,38.77,0,0,1,5.39-11.67c4.83-7.18,7.86-15.29,12.64-22.47s8.6-15.24,13.79-22.37c10.66-14.66,21.49-29.12,34.38-42,18.29-18.23,37.76-35,59.45-49.07A284.32,284.32,0,0,1,248.8,35.17c5.95-2.11,11.8-4.55,17.95-6.08.91-.23,2.12-.6,1.76-1.93C268.27,26.27,267.33,26.1,266.11,26.14Z"/><path class="a" d="M436.85,89.35C445,90,453,91.15,461,92.51a211.15,211.15,0,0,1,50.44,15.3c7.43,3.3,15,6.24,22.11,10.29,1,.58,2.37,1.26,3.14,0s-.09-2.53-1.32-3.28c-2.7-1.65-5.28-3.59-8.17-4.8-9.49-4-18.74-8.48-28.38-12.15-16.18-6.16-32.9-10.15-49.8-13.48a262.81,262.81,0,0,0-34.53-4c-2.62-.17-5.31,0-7.82-.38-7.56-1.17-15.13-1-22.7-.87-6.6.11-13.17,1.17-19.74,1.3-12.35.24-24.41,2.56-36.44,4.81s-24.39,4.74-36,9.26c-7.88,3.07-15.87,5.91-23.63,9.25a262.22,262.22,0,0,0-27.63,14.49c-6.9,4-13.28,8.68-19.77,13.27a282.47,282.47,0,0,0-29.55,23.66,299.89,299.89,0,0,0-24,25.3c-8.84,10.39-17.32,21.09-23.62,33.28-9.46,18.32-17.77,37.19-26.1,56a38.93,38.93,0,0,0-1.81,5.7c-.21.79-.19,1.74.79,2.12s1.57-.39,1.88-1.14c.83-2,1.43-4.08,2.33-6q8.88-19.53,17.86-39c5.93-12.87,12.72-25.25,21.67-36.31a255.73,255.73,0,0,1,39.65-39.83,238.19,238.19,0,0,1,45.35-28.65c7.13-3.41,14.24-6.94,21.57-9.87,8.93-3.55,18.09-6.55,27.05-10,9.67-3.71,19.78-5.49,29.67-8.13,9.57-2.55,19.55-3.57,29.32-5.39,3.74-.69,7.64-.71,11.22-1.46a152.19,152.19,0,0,1,22.72-2.53C403.41,88.43,420.14,87.85,436.85,89.35Z"/><path class="b" d="M653.39,307.24c3-8.27,5.68-16.67,9.7-24.52,3.72-7.25,7.68-14.32,13.65-20.1a36,36,0,0,1,14-8.37c3.27-1.09,6.52.18,8.84,2.07a19.94,19.94,0,0,1,7.5,11.9c2.19,11.27.38,21.43-5.95,31.06-2.34,3.56-5.41,6.63-7.1,10.63a4.68,4.68,0,0,1-1.87,2.27c-6.9,3.52-12.16,9.47-19.34,12.84A52,52,0,0,0,690,333.7c5.88,1.79,12.1,3.3,18.55,2,6.65-1.3,13.39-1.77,19.91-4.07A76.64,76.64,0,0,0,755.72,315c8.79-8.2,15.38-18,20.63-28.57A58.74,58.74,0,0,0,783,261.7c.18-6.54.26-12.81-1.93-19.08a20.36,20.36,0,0,0-13.24-13.14c-2-.68-4-1-3.64-3.76.31-2.09,2.2-3.4,4.9-3.33a15.58,15.58,0,0,1,9.85,4.38,31.85,31.85,0,0,1,9.5,13.69c5,14.3,3,28-1.5,41.91C783.45,293,777.43,302,771,310.9a81.46,81.46,0,0,1-22.94,21.74,90.78,90.78,0,0,1-16.55,7.81c-9,3.35-18.41,4.21-27.89,4.68a17.44,17.44,0,0,1-4-.25c-9-1.65-17.67-4.29-25.44-9.42-3.73-2.47-7.74-4.52-11.65-6.74a11.88,11.88,0,0,0-4.21-1.48c-1.44-.21-2.22.14-2.27,1.71-.14,4.92-2.1,9.88.44,14.73a4.14,4.14,0,0,1,.36,1.95c0,5.12.17,10.25-.24,15.34-.5,6.16-4.39,8.14-10.38,6.31-4.36-1.33-6-4-7.34-8.23a167.31,167.31,0,0,1-4.56-16.2c-.56-2.74-.28-5.63-1.55-8.26-.29-.6-.44-1.26-1.44-1.41-3.21,4.69-5.13,10.17-7.63,15.36-3.24,6.72-6.46,13.45-9.95,20A60.73,60.73,0,0,1,603.61,382c-5,5.21-15.28,2.57-18.84-1.81-2.69-3.32-3.65-7.43-5.65-11.05-.23-.42-.12-1.05-.38-1.43-6.39-8.95-5.21-19.1-4.7-29.15,0-.32.24-.66.18-1-1.63-6.78-.57-13.5.37-20.23,0-.28-.23-.6-.47-1.15-2.45,1.2-3.18,3.71-4.1,5.76a110.18,110.18,0,0,0-9.36,37.49,134,134,0,0,0,.59,28.24,25.07,25.07,0,0,1-.62,7.88c-.57,3-4.16,5.55-7.36,5.73s-5.36-1.48-7.11-4.35c-3.08-5-4.32-10.8-6.1-16.2-1.69-5.09-1.93-10.84-3.6-16.77-1.2,4.42-2.36,8.33-3.33,12.29-2.25,9.18-4.19,18.45-6.69,27.56-1.59,5.79-5,10.89-8.36,15.76-3,4.27-6.41,4.58-11.51,2.92-7.47-2.43-11.23-8.07-13.75-15a12,12,0,0,0-2.48-4.9c-1.87,7.18-3.65,13.76-5.27,20.39a106.06,106.06,0,0,1-5.14,15.55,12,12,0,0,1-11.1,7.25c-4.44.12-7.68-3.44-10.4-6.88-1.63-2-3.15-4.19-4.85-6.48-2.06,1.3-2.07,3.28-2.41,4.9-1.16,5.54-3,10.9-4.4,16.36-2,7.71-6,14.38-11,20.45-4.83,5.84-12.23,5.78-17.78.77s-7.34-11.72-10.12-18c-2.41-5.43-2.92-11.31-3.51-17.28-.57-5.79-.62-11.71-1.87-17.47-.4-1.83-.74-3.88.25-5.81.55-1.09-.15-1.85-1.29-2.54-2.53,3.64-3.54,7.81-4.51,11.9-3.19,13.42-6.46,26.86-7.63,40.64-.75,8.73-2,17.49-.27,26.31a53.94,53.94,0,0,1,.48,9.45,6.65,6.65,0,0,1-4.52,5.93c-2.73.94-7-.15-8.61-2.3a7.3,7.3,0,0,1-1.44-2.61c-1.18-5-3.58-9.62-4.44-14.71a14.09,14.09,0,0,0-2.59-6.9,7.52,7.52,0,0,1-1.6-4.12c-.28-5.91-3.34-11.19-3.95-16.9s-3.34-10.67-3.88-16.24a5.32,5.32,0,0,0-2.38-4.3c-1.34,1.39-1.54,3.27-1.95,4.95-4.44,18.08-8.75,36.21-11.63,54.62-1.46,9.37-3.37,18.62-5.66,27.8-.88,3.51-1.75,7.08-3.79,10.21-3.79,5.84-10.36,8.81-17.11,2.36a47.87,47.87,0,0,1-10.47-15.4c-5.19-11.47-9-23.44-13.33-35.21-2.44-6.6-3.37-13.75-5.05-20.63-1.73-7.05-3-14.22-4.39-21.32-1.21-6-1.4-12.18-2.5-18.23-1.82-10-1.25-20.3-2.8-30.41a122.81,122.81,0,0,1-1.25-12.8,44.77,44.77,0,0,0-9,4.74c-14.72,9.15-28.94,19-41.77,30.72-13.11,12-24.68,25.15-32.6,41.21-3.86,7.83-6.73,15.92-5.77,24.89.89,8.3,3.91,15.34,11.27,20.05,2.51,1.61,5.27,1.9,8,2.4,1.29.24,2.86.27,2.66,2.22-.18,1.77-1.61,1.9-3,2a19.37,19.37,0,0,1-15.32-6c-6.73-6.77-9.43-15.27-9.26-24.91.15-8.44,3.09-15.92,6.77-23.21C195.52,445.47,206,433.2,217.63,422a248.74,248.74,0,0,1,52.51-38.58c1.46-.8,2.78-1.83,4.23-2.65a4.07,4.07,0,0,0,2.19-3.13c.61-5.72,1.26-11.45-.21-17.14-.08-.33-.3-.67-.24-1,1.13-5.84-.39-11.84.89-17.63a13,13,0,0,0,.21-4.33,11.22,11.22,0,0,1-.35-2.44c1.11-7.71.82-15.67,4.49-22.91.87-1.71.85-3.86,1.22-5.81a8.08,8.08,0,0,1,4.54-6.18c3.1-1.48,6.3-.54,7.41,2.65s2.29,6.08,2.39,9.5a173.43,173.43,0,0,0,1.23,18.76,60.29,60.29,0,0,1,.12,14.83,128.64,128.64,0,0,0,0,21.14c-.27.37-.61.81-.18,1.19s.84.09,1.15-.3c5.38-1.26,10-4.31,15.19-6.18,9.53-3.45,18.93-7.24,28.35-11,6.38-2.52,6.62-3.21,6.75-10.49.11-5.84-.8-11.81.7-17.5,1.81-6.91,2.36-14,4-21,1.57-6.79,4.07-13.29,5.53-20.11a32.45,32.45,0,0,1,5.83-12.44,50.27,50.27,0,0,0,2.73-4.74c3.35-5.78,7.73-10.33,14.29-12.48,4.24-1.39,7.88-1.17,11.64,1.74,9.69,7.51,13.49,17.29,12.46,29.28-.93,10.89-4.36,21.11-8.06,31.28-2.07,5.71-4,11.46-6.38,18.15,4.92-1.91,8.84-3.5,12.82-4.95,16.1-5.83,31.95-12.31,47.88-18.58A314.54,314.54,0,0,0,496.1,288.5c17.71-10.31,34.52-21.84,47.6-38,8.47-10.5,13.78-22.33,14.79-35.76a47,47,0,0,0-4-22.91c-6.4-14.18-15.56-26.2-29.06-34.53-2.22-1.38-3.8-1.58-6.21-.11-18.16,11.06-36.36,22-54.71,32.78-9.88,5.78-20.07,11.05-30.14,16.52-9.49,5.15-18.95,10.36-28.52,15.38-8.52,4.47-17.05,8.9-25.79,13q-15.61,7.27-31.68,13.31c-11.05,4.14-22.38,7.56-34.07,9.1-8,1-16.23,1.69-24.24-.84a25,25,0,0,1-17.4-22.18c-.65-8.49,1.74-16.38,5.39-24,10.55-22,28.44-36.84,48.5-49.53a177.4,177.4,0,0,1,18.2-10.36A261,261,0,0,1,386,134.49a197.62,197.62,0,0,1,40.73-7c15.45-1,30.91-.58,46.16,2.64,15.82,3.34,31.24,7.83,45.28,16.13,2.42,1.43,4.26,1.52,6.8-.14,6.66-4.36,13.6-8.3,20.46-12.36,9.42-5.58,18.61-11.56,28.41-16.49,1.73-.87,1.43-2,.49-3.21a68.53,68.53,0,0,0-5.12-6.14,153.17,153.17,0,0,0-30.11-23.67c-5.16-3-10.31-6-15.67-8.76A260.68,260.68,0,0,0,486.1,60.32C465.33,53.58,444,49.53,422.35,46.56a259.74,259.74,0,0,0-47.78-1.67,242.3,242.3,0,0,0-37,5c-7.15,1.46-14.31,2.94-21.38,4.72a342.86,342.86,0,0,0-51.43,17.24c-10.54,4.51-21,9.13-31.11,14.58-12.14,6.56-24,13.6-35.5,21.24a273.68,273.68,0,0,0-23,16.62,313.51,313.51,0,0,0-43.26,43.25,274.75,274.75,0,0,0-22.82,32,253.13,253.13,0,0,0-33.24,88.45c-1.47,9-3.19,18.06-3.61,27.19-.91,19.68,1.48,38.85,10.34,56.79,8.62,17.46,21.09,31.34,38.41,40.51,13.64,7.21,28.26,9.11,43.5,7.41,19.65-2.19,33.53-13.14,44.56-28.71,8-11.35,12.82-24,15.46-37.53,3.11-16,.69-31.29-7.71-45.17-4.68-7.73-11.74-13.46-20.1-17.38-11.63-5.45-23.56-7.1-35.81-2.61a36.09,36.09,0,0,0-16,11.41,62.38,62.38,0,0,0-10.43,18,12.8,12.8,0,0,1-1.37,2.65,3.19,3.19,0,0,1-3.52,1.3c-1.65-.38-1.8-1.89-1.57-3.23a39,39,0,0,1,4.82-12.95c6.19-10.76,14.72-18.89,26.6-22.85a45.56,45.56,0,0,1,23.66-1.46c9.77,2,18.72,5.63,26.48,12.09a52.77,52.77,0,0,1,17.33,26.73c6.21,21.63,2.36,42.07-6.91,62a83.78,83.78,0,0,1-19.19,26.45c-11.25,10.42-24.39,16.47-39.76,17.44a113.19,113.19,0,0,1-21.85-.67,61.15,61.15,0,0,1-14.33-4.07c-11.8-4.61-21.79-11.95-30.51-21.09A99.91,99.91,0,0,1,72,364.07,115,115,0,0,1,65.59,324c.27-17.07,3.34-33.66,6.81-50.28A223.84,223.84,0,0,1,85.23,233,263.32,263.32,0,0,1,114,181.35a368.25,368.25,0,0,1,29.28-35.11c5.87-6.35,12.14-12.29,18.55-18.05a246.72,246.72,0,0,1,19.87-15.84q16.36-11.88,33.8-22.08a388.27,388.27,0,0,1,44.38-22.41A365.06,365.06,0,0,1,326.06,46.5a312.57,312.57,0,0,1,64.31-7.43c15.69-.1,31.16,1.63,46.62,4a308.66,308.66,0,0,1,51.82,12.35,267.49,267.49,0,0,1,50.36,22.59,169.67,169.67,0,0,1,31,23.28c3.75,3.58,6.8,7.72,10.22,11.8,5.17-2.77,10.25-5.52,15.36-8.22C613.4,95.61,631.2,86.71,649.6,79c9.8-4.11,19.55-8.35,29.53-12,13.56-4.93,27.24-9.62,41.2-13.33a305.54,305.54,0,0,1,47.44-9.09,127.43,127.43,0,0,1,55,6.06,114.74,114.74,0,0,1,39.39,22.91c14.57,13,23.72,29.24,26.15,49,1.12,9.1,1.58,18.16-.25,27.16-2.83,13.9-7.68,26.85-18.95,36.36a50.34,50.34,0,0,1-17.32,9.58c-5.07,1.61-10,3.63-15.31,4.39a81.64,81.64,0,0,1-45.8-6.06,56,56,0,0,1-15.54-9.74c-7.56-7-9.29-15.73-8.62-25.39a2.32,2.32,0,0,1,2.07-2.44,2.72,2.72,0,0,1,3.11,1.95,13.72,13.72,0,0,1,.28,3.46,25,25,0,0,0,7.83,17.79c5.74,5.69,12.86,8.94,20.25,11.47a68.18,68.18,0,0,0,37.38,2.33c8.92-2,17.59-5.21,25.13-10.55a35.21,35.21,0,0,0,9.81-11.13c6.2-10.63,10.35-22.12,10.33-34.48,0-20.61-5.57-39.45-20.57-54.54a103.74,103.74,0,0,0-40.56-25.41c-22.12-7.57-44.53-8.42-67.44-4.49a344.34,344.34,0,0,0-46.46,11.33c-18,5.75-35.77,12.43-53.19,19.88-10.37,4.43-20.74,8.9-30.91,13.78-7.78,3.73-15.21,8.18-22.85,12.21-5.26,2.79-10.64,5.35-16.23,8.86,3.07,4.19,5.39,8.71,8.09,13A77.61,77.61,0,0,1,601,150.9c8.93,29.5,8.83,59-2,88.11a127.41,127.41,0,0,1-16.22,30.77,17.79,17.79,0,0,1-5.27,5.24c-1,.61-2.14,1.39-3.09.19-.72-.92-.1-2,.64-2.67,4.49-4.36,7.12-10,10.22-15.25a127.88,127.88,0,0,0,13.1-32.73c5.71-21.89,4.83-43.79-.13-65.62-2-8.63-5.89-16.59-10-24.36a87.65,87.65,0,0,0-6.8-11c-1.18-1.59-2.08-2-3.94-.91-4.54,2.74-9.28,5.15-13.86,7.83-9.87,5.81-19.69,11.72-29.54,17.58a22.7,22.7,0,0,0-5.49,4.14,73.79,73.79,0,0,1,12.65,10.22,76.65,76.65,0,0,1,20.05,31,57.65,57.65,0,0,1,2.4,27.53,62.38,62.38,0,0,1-9.39,24.51c-8.08,12.64-18.55,23-30.55,31.89-19.51,14.47-41.08,25.15-63.23,34.77C438,322,414.8,330.2,391.83,339a5.24,5.24,0,0,0-3.46,3.18c-1.66,4.34-3.54,8.6-5.17,12.95-2.93,7.78-5.72,15.61-8.62,23.41a21.23,21.23,0,0,0-1.11,11.61,52,52,0,0,1,.34,12.18A57.33,57.33,0,0,0,375,415.6c2,11.94,3.07,24,4.91,35.95.32,2.1.27,4.32,1.76,6.08l.52,4.76c.91-1.79,1.66-3.18,1.24-4.84,2-3.43,1.63-7.41,2.5-11.11,4-17,8-33.93,15.59-49.77a26.55,26.55,0,0,0,1.95-5.13c1-4.18,4.11-6.2,7.84-6.54s6.2,2.29,8,5.67c4.31,8.32,4.55,17.24,4,26.21-.25,3.65-.5,7.26-.45,10.92.09,6.42.85,12.81,1,19.24a37.24,37.24,0,0,0,5.44,18.85,28.88,28.88,0,0,0,9.27-12.57c4.28-11,7.09-22.5,10.66-33.75a12.23,12.23,0,0,0,.55-5.42,110.73,110.73,0,0,1-1.44-22.21c.44-7.44.69-15.35,5.15-21.89,2-2.89,2-6.25,3.45-9.25,2.84-5.78,8.13-8.18,13.47-10.26,3-1.16,6.53-.91,9.84-1.08a4.22,4.22,0,0,1,4,1.59c1.28,1.83,3.42,2.58,5.1,3.9,2.53,2,3.21,1.64,3.74-1.47.34-2,.55-3.86,2.09-5.44,2.82-2.91,6.17-2.91,9.66-2a7.61,7.61,0,0,1,5.82,7.34c.32,7.06,2.75,14.12.39,21.24a1,1,0,0,0,0,.49c1.71,9.43-.13,19,1.29,28.46a9.77,9.77,0,0,0,.72,2.38c.56,1.27,1.54,1.16,2.4.4,1.53-1.36,2.2-3.28,3-5.1,3.28-7.31,5.36-15,7.47-22.71q5.29-19.23,12.05-38c1.64-4.53,1.94-9.45,4.18-13.79.53-1,.89-2.15,1.43-3.16,1.54-2.87,4.13-3.78,7.15-3.46s4.61,2,5.67,4.85c1.42,3.77,1.09,7.87,2.74,12.29,1.26-3.25,2.38-5.89,3.32-8.59A92.46,92.46,0,0,1,576.26,303c6-7.87,13-4.1,16,2.25,2.54,5.34,2.68,11.37,2.78,17.09.06,3.71.17,7.24,1.4,10.68a8.94,8.94,0,0,1,.09,6.3,13,13,0,0,0,0,8.21,20.69,20.69,0,0,1,.48,9.82c-.78,3.94,1,7.73,1.86,11.44,1.44.55,2-.33,2.66-1.06,5.56-5.84,9.34-12.85,13.13-19.85,2.36-4.37,4.64-8.79,6.9-13.22,2.48-4.87,5-9.71,7.28-14.69,1.94-4.29,1-8.8,0-13.14-.31-1.27-1-2.51-.84-3.82.7-6.4-.85-12.76,0-19.22.62-4.86.29-9.87,0-14.8-.23-4.49-.7-8.94,1.05-13.26a3.93,3.93,0,0,0,.33-1.93c-1.12-7.55.85-14.78,2.16-22.09a5.68,5.68,0,0,0,.17-1.47c-.65-8.6,2.68-16.62,3.56-25,.71-6.68,2.84-13,5.22-19.19,2.2-5.72,4.13-11.54,6.5-17.22a51.17,51.17,0,0,1,12.48-18.27c5.76-5.35,12.34-7,19.77-4.64s11.74,7.92,13.43,15.39c2.3,10.17.42,20.13-1.81,30.08-2.49,11.07-6.23,21.73-10,32.4-3.19,9.08-7,17.92-11,26.66-3.54,7.69-7.22,15.32-10.83,23-2.18,4.65-4.18,9.4-6.56,13.94-3.31,6.31-4,12.49-.15,18.78-.57.39-.84.91-.34,1.48S653,307.73,653.39,307.24ZM515.64,151.46c-8.74-5.45-28.19-13.06-37.58-14.73A239.43,239.43,0,0,0,445,132.65c-22.9-.9-45,3-66.67,10A218.81,218.81,0,0,0,331,164.46c-15.78,9.72-29.68,21.32-40.8,36.13a61,61,0,0,0-11.77,27.2c-1.78,11.18,5.21,23.46,18.83,24.49,11.51.87,22.52-1.34,33.43-4.42,20-5.66,39-14.24,57.69-23.17,10.93-5.21,21.49-11.19,32.18-16.89,15.26-8.14,30-17.15,44.94-25.85,9.75-5.68,19.37-11.57,29-17.43C501.38,160.32,508.24,156,515.64,151.46Zm-167,203.07c-16.28,6.05-32.36,11.32-47.68,18.56-3.28,1.55-3.36,1.84-2.81,5.79.26,1.81.18,3.68.55,5.46.73,3.47-.8,6.87-.34,10.24a127.59,127.59,0,0,1,1.44,19.9,21.71,21.71,0,0,0,1.26,7.84,13.29,13.29,0,0,1,1.09,6.07c-.63,5.39-.85,10.69,1.44,15.79.07.14,0,.33,0,.49.9,10.54,2,21.05,4.83,31.3a60.68,60.68,0,0,1,2.18,10.13,40,40,0,0,0,1.88,9.71c2,5.4,3.56,10.92,5.15,16.44,1.09,3.82,2,7.69,2.91,11.57.64,2.82,2.27,5.14,3.45,7.69.71,1.52,1.74,1.44,2.62.22a14.68,14.68,0,0,0,1.27-2.68,82.39,82.39,0,0,0,4.86-15.67c3-13.11,5.66-26.29,8.38-39.46,2.87-13.83,6.37-27.5,10.37-41.05,1.39-4.73,3.08-9.48,2-14.66-2-10.17-2.17-20.54-3.22-30.82-.6-5.86-1.58-11.55-1.18-17.6A108,108,0,0,0,348.61,354.53Zm301-79.73c1.3.18,1.61-.25,1.82-.68,4.29-8.8,8.89-17.47,12.76-26.45,4.58-10.65,9.4-21.18,13.53-32a209.21,209.21,0,0,0,9.65-35.49c1.21-6.33,1.71-13-.47-19.28-3.41-9.79-11.82-13.06-20-6.94-4.72,3.53-7.91,9.3-9.2,15.12-1.93,8.68-5.42,17-5.57,26.15-.11,6.53-2.81,12.89-1.33,19.65.43,2-.37,4.26-.8,6.37a10.32,10.32,0,0,0-.3,4.44c.7,3,.29,5.92,0,8.88a44.67,44.67,0,0,0-.34,8.9,71.77,71.77,0,0,1-.2,14.8,37.4,37.4,0,0,0-.11,8.32C649.29,269.3,650.05,272,649.62,274.8Zm-278,64.91c3.9-.23,6.65-2.36,9.82-3.17,2.47-.62,3.76-2.18,4.57-4.68,4-12.41,9.28-24.41,12.49-37.11a58.73,58.73,0,0,0,2-16.21c-.18-6-2.11-11.28-7-15.3-3.93-3.19-6.52-3.09-9.43,1-2.54,3.6-3.67,7.62-4.51,11.92-2.06,10.64-5.47,21-5.89,32a76.36,76.36,0,0,1-1.05,11.21C371.36,326.1,372.14,332.74,371.66,339.71ZM472.5,432.85c3.4-3.2,4.71-7.37,6.11-11.23,2.83-7.8,5-15.85,7.13-23.86,1.55-5.75,2.7-11.6,4-17.42a6.69,6.69,0,0,0-1.53-6.47,40,40,0,0,0-8.05-6.54,2.51,2.51,0,0,0-3.14.05c-2,1.34-3.93,2.75-4.3,5.19-.57,3.8-2.62,7.17-2.9,11-.2,2.77-1.78,5.29-1.21,8.25a47.13,47.13,0,0,1,.38,9.21c0,5.24-.9,10.39-.18,15.76S471.39,427.36,472.5,432.85ZM660.83,307.43a16.43,16.43,0,0,0,7.38-3.43c5.78-4.77,12.2-8.63,16.92-14.91,3.85-5.13,5.35-10.82,7.42-16.47a8.37,8.37,0,0,0,.16-3.43c-.48-6.71-2.89-7.88-8.49-4.16-.69.45-1.35,1-2,1.45a31.09,31.09,0,0,0-8,8.74A102.72,102.72,0,0,0,660.83,307.43ZM381.55,343c-3.44,1.1-5.91,1.85-8.34,2.7a1.85,1.85,0,0,0-1.29,1.89c0,6.52,0,13,0,20.43C375.73,359.75,378.19,351.72,381.55,343Z"/><path class="b" d="M304.75,806.61a146.08,146.08,0,0,1-25.06,15.53,126,126,0,0,1-30.5,10.55,159.5,159.5,0,0,1-44.68,2.8A149.74,149.74,0,0,1,165.67,827a133,133,0,0,1-17.41-7.39c-21.18-11.18-38.43-26.45-50.42-47.52C89.21,756.93,85,740.54,82.71,723.46a174.75,174.75,0,0,1-1.47-31.83,193.15,193.15,0,0,1,9.28-50.37,205.52,205.52,0,0,1,22.22-47.2c5.1-8,11.55-15,18.42-21.59a124.21,124.21,0,0,1,25.74-18.7c10.15-5.59,20.83-9.27,32.43-10.1,8-.57,15.39,1.06,23.07,4.06,8.08,3.16,15,7.64,22,12.41,14,9.67,26.15,21.06,32.91,37.2a28.18,28.18,0,0,1,1.62,5.75c.26,1.41.68,3.27-1.42,3.65-1.79.32-2.12-1.42-2.44-2.62a51.94,51.94,0,0,0-7.13-14.76,77.56,77.56,0,0,0-18.65-19.89,208.9,208.9,0,0,0-18.39-12.85c-9.22-5.48-19-9.56-30-9.63a50.12,50.12,0,0,0-20.42,3.93C151,559.29,135.18,572.43,122.34,589a146.86,146.86,0,0,0-17.63,30A222.09,222.09,0,0,0,93.14,649.7c-5.43,19.18-8,38.72-6.81,58.64a172.66,172.66,0,0,0,6.39,38.76,107.21,107.21,0,0,0,16.58,33.27c15.5,21.07,36.55,34.33,61,42.87,19.35,6.76,39.25,8.36,59.51,7.13a126.11,126.11,0,0,0,54-15.94,106.87,106.87,0,0,0,15.94-10.16c2.06-1.68,2.65-2.91,1.47-5.34a75,75,0,0,1-7-24.33c-1.71-14.83,0-29.19,6.5-42.79a29,29,0,0,1,6.45-8.82c5.95-5.53,17.26-7.83,25.17,2,6.76,8.37,8.73,18.21,6.73,28.7-3,15.85-11.28,29-21.85,40.84-2,2.24-4.13,4.35-6.32,6.4a2.66,2.66,0,0,0-.5,3.91c4.37,6.87,8.84,13.67,14.41,19.67,2.38,2.56,2.46,2.63,5.16.28,11.22-9.75,21.31-20.44,29-33.33,8.48-14.18,14.38-29.16,16.18-45.65.16-1.42-.07-3.56,2-3.34s1.31,2.36,1.2,3.71c-1.32,17.79-7.15,34-16.79,49-8.17,12.72-18.2,23.71-29.2,33.93-.46.43-1.16.68-1.23,1.89,5.81,5.86,12.85,10.46,20.28,14.51C372,856.68,394,859.89,417.08,856.35c13.62-2.09,26.32-6.88,38.84-12.38,21.34-9.38,40.5-22.27,58.66-36.63,12.64-10,25-20.33,36.91-31.26s23.26-21.87,34.4-33.3c10.09-10.35,19.94-20.94,29.4-31.89,2.16-2.5,2.23-2.86-1.12-4.63A215.42,215.42,0,0,1,591,691.69a135.8,135.8,0,0,1-30.55-29.08c-11.61-15.39-19-32.61-23.4-51.25a3.86,3.86,0,0,1-.1-.49c-.22-1.92-1.22-4.32,1.58-5,2.31-.57,3,1.43,3.61,3.26,1.65,5,3.42,10.06,5,15.12,3.47,11.06,9.2,21,15.66,30.48,7.16,10.53,16.22,19.17,26.26,27a217.62,217.62,0,0,0,30.39,19.86c1.78,1,2.79,1,4.19-.62,13.92-16.48,27.39-33.32,40.2-51-3.18-2-6.65-1.68-9.77-2.23-14.6-2.59-27.92-8.48-40.83-15.39-5.54-3-10.38-7.2-16.2-9.8a5.62,5.62,0,0,1-1.8-1.68,1.72,1.72,0,0,1-.07-2.28c.69-.82,1.48-.41,2.22,0,5.08,2.83,10.2,5.58,15.22,8.5a133.56,133.56,0,0,0,51.17,17.13c3,.37,4.9-.53,6.64-3,5.76-8.32,11.79-16.45,17.63-24.72q8-11.41,15.89-23,14.74-21.62,29.4-43.28,19.46-29,40-57.14c10.38-14.23,21.33-28.05,32.06-42,1.81-2.35,4.84-4.51,5-7.19s-3.8-3.75-5.88-5.54a90.86,90.86,0,0,1-25.19-35.94c-2.84-7.16-4.29-15-5.51-22.71-1.8-11.45-.2-22.58,2.08-33.68,1.34-6.53,4.31-12.54,7.26-18.48,8.83-17.72,21.56-32.28,37.27-44.13,19.21-14.48,40.5-17.26,63.35-10.23a95.16,95.16,0,0,1,27.6,13.67,78.56,78.56,0,0,1,15.54,15.32c6.19,7.75,10.53,16.42,14.34,25.63,6.92-2.64,13.76-5.17,20.74-7.26,15.44-4.62,31.11-6.09,46.73-1.74,16.41,4.57,29.38,14,38.33,29,7.58,12.68,11,26.55,13.77,40.76a113.89,113.89,0,0,1,.73,37.15,201.89,201.89,0,0,1-10.16,42,324.64,324.64,0,0,1-20,44.48c-7.07,12.85-15.1,25.06-23.23,37.24-8.37,12.54-18.19,24-27.68,35.65-6.69,8.23-14.32,15.72-21.71,23.35-7.05,7.28-14.1,14.58-21.6,21.37C931,635.42,924.6,641,917.92,646.28,908.13,654,898.5,661.91,888.24,669c-18.22,12.53-37.13,24-57.39,32.92C819,707.1,807.07,712,794.73,716.11c-11.8,3.89-23.57,7.79-35.7,10.57A211.88,211.88,0,0,1,724.57,732a196.32,196.32,0,0,1-51.9-4.16,223.76,223.76,0,0,1-35.14-10.73c-4.33-1.67-8.69-3.29-12.89-5.24-2.09-1-3.31-.52-4.69,1-5.52,6.23-11,12.5-16.69,18.56q-11.26,12-22.83,23.72c-5.58,5.66-11.23,11.26-17.11,16.61-12.91,11.73-25.91,23.35-39.55,34.27-16.54,13.24-33.8,25.28-52.46,35.31A195.87,195.87,0,0,1,437,856c-11.51,3.58-23.11,6.13-35.18,6.64-17.16.73-33.46-3.08-48.83-10.22a87.07,87.07,0,0,1-24-15.94c-2.62-2.52-2.66-2.38-5.6-.35-8.34,5.76-17,10.91-25.92,15.84a199.76,199.76,0,0,1-29.59,13.13A111.87,111.87,0,0,1,234,871.85c-9.23.31-18.44,1.22-27.69.56a110.45,110.45,0,0,1-14.67-2.5c-7.31-1.51-14.85-2.34-21.84-4.77-8.7-3-17.65-5.48-26-9.59-12.73-6.28-24.16-14.5-35.25-23.24a191.71,191.71,0,0,1-29.75-29.23A160.77,160.77,0,0,1,61,775.43a133.46,133.46,0,0,1-8.49-19.61,23.69,23.69,0,0,1-.91-4.88c-.15-1.3-.59-3,1-3.42s2,1.27,2.31,2.61a48,48,0,0,0,2.8,8C64.91,774.53,73.91,789.62,86,803c15.34,17,33.94,29.1,54.25,38.92,4.43,2.14,9.27,3.46,14,5,7.68,2.48,15.33,5.06,23.22,6.89,5.17,1.2,10.43,1.32,15.63,2.15a118.55,118.55,0,0,0,32.1,1.13c6.08-.69,12.3-.11,18.37-.86,18.46-2.28,36.67-5.9,54.14-12.46a92,92,0,0,0,22.45-11.66c2.26-1.66,2.41-2.53.51-4.33C314.33,821.74,310.17,814.11,304.75,806.61ZM626.9,705.31c3.19,1.51,5.93,3.15,8.89,4.16,11.92,4.07,23.65,8.68,36.07,11.28a218.49,218.49,0,0,0,35,4.63c12.16.54,24.27.3,36.3-2,7-1.36,13.93-3,20.89-4.53a271.77,271.77,0,0,0,34.31-10.34A386.49,386.49,0,0,0,843,688.9,354.42,354.42,0,0,0,888.37,661a467.17,467.17,0,0,0,44.75-36.58c12.67-11.77,24.79-24.07,36.54-36.73,8.37-9,16.29-18.4,24-28.06a273.69,273.69,0,0,0,42.15-70.31c4.74-11.34,9.44-22.68,12.51-34.63.67-2.57.93-5.26,1.83-7.73,3-8.21,3.83-16.8,4.75-25.36a110.56,110.56,0,0,0-.63-30.28c-1.65-9.84-3.49-19.59-7.21-28.85-2.78-6.92-6-13.74-10.79-19.52a52.13,52.13,0,0,0-22.82-16.24,67,67,0,0,0-20.33-4.28c-16.17-.58-31.17,4.19-46,9.74-3.82,1.43-4,1.61-3,5.39,2.57,9.84,3.74,19.9,4.63,30a180.07,180.07,0,0,1-2,47.62c-3.57,20-8.65,39.58-16.88,58.24-7.32,16.59-15.56,32.6-26,47.55a346.89,346.89,0,0,1-33.27,41,350.11,350.11,0,0,1-29.72,27.37A297.63,297.63,0,0,1,787,625a237.5,237.5,0,0,1-54.59,20.13,195.68,195.68,0,0,1-56.89,5.17c-4.57-.28-7,1.29-9.37,4.65-9.8,14.06-20.58,27.35-31.39,40.64C632.23,698.68,629.05,701.22,626.9,705.31Zm47.88-60.12A177.69,177.69,0,0,0,705.61,644c15.34-1.87,30.4-4.93,45-10.28,12.79-4.68,25.36-9.64,37.43-16a298.75,298.75,0,0,0,34.62-21.56,373.65,373.65,0,0,0,31-25.12,269.8,269.8,0,0,0,30.48-32.9,310.1,310.1,0,0,0,30.58-45.92,232.22,232.22,0,0,0,16.06-36.42,281.82,281.82,0,0,0,8.55-31.71,185.85,185.85,0,0,0,4.06-29,209.64,209.64,0,0,0-3.89-52.12c-.42-2.09-.67-4.23-2-6.39-2.15,1.05-4.26,2-6.3,3.08-22.87,12.28-42.91,28.34-61.75,46.07-15.67,14.74-29.68,30.95-43.13,47.68-1.91,2.37-6.28,4.53-4.53,7.78,1.36,2.52,5.58,3.26,8.76,4.28.16.05.33,0,.49.09a80.57,80.57,0,0,0,24,3.57A44.57,44.57,0,0,0,880,442c2.66-1.69,5.14-3.66,7.74-5.46,1.66-1.14,3.41-2.41,5.37-.61,1.36,1.25.83,3.33-1.64,5.5-2.11,1.85-4.5,3.39-6.73,5.12-7.62,6-16.58,8.71-25.93,9.33-14.21.94-28.24-.29-40.86-8-1.73-1.06-3-.74-4.22.9-2.11,2.78-4.51,5.35-6.61,8.14-8.66,11.59-17.35,23.16-25.86,34.86Q767.32,511,753.74,530.32c-8.1,11.56-16,23.29-24,34.9q-13.34,19.26-26.83,38.43c-8.88,12.64-17.25,25.65-26.78,37.84A4.62,4.62,0,0,0,674.78,645.19ZM780,366.61c.76,14.71,3.33,28.68,10.5,41.7a93.7,93.7,0,0,0,22.77,27.29c2.28,1.88,3,1.71,4.87-.61,4.1-5,8.09-10.14,12.29-15.07,7.45-8.72,15.08-17.29,23-25.6,6.19-6.49,12.54-12.8,19-19,5-4.85,10.53-9.16,15.82-13.72a238,238,0,0,1,32.08-22.74c3.83-2.32,7.9-4.23,11.86-6.34s3.95-2.09,2.4-6a82,82,0,0,0-15.88-25.71C906,287,890.14,278.9,871.65,275.88c-11-1.81-21.93-1.32-32.29,3.21a85.39,85.39,0,0,0-22,14.44,118.07,118.07,0,0,0-28.75,37.74A90.2,90.2,0,0,0,780,366.61ZM307.46,797.67a105.87,105.87,0,0,0,13.76-15.52c7.42-10.39,13.1-21.56,14-34.62C335.7,740,334,733,328.88,727.2c-5.58-6.31-13.8-6.3-19.54,0a30.69,30.69,0,0,0-6.47,11.15A79.57,79.57,0,0,0,304.3,793C304.94,794.7,305.46,796.49,307.46,797.67Z"/><path class="b" d="M587.57,517.64c3.95-4.47,6-9.17,8.34-13.68,5.51-10.87,8.48-22.72,12.8-34,.9-2.36.47-4.89.35-7.38-.34-7.31,2.26-14.41,1.83-21.73a27.14,27.14,0,0,1,2.74-13,24.56,24.56,0,0,1,10.31-11c3-1.76,8.57.22,10.3,3.6s3.1,7.15,2.38,10.9c-1,4.89.44,9.68-.07,14.51-.07.71.28,1.38-.16,2.23a19.91,19.91,0,0,0-1.72,13c.49,2.77.75,5.58,1,8.39.83,8.39,4.56,15.66,9.6,22.06,3.31,4.2,8.78,4.84,14,5.22,10.46.76,19.55-3,27.82-8.88,17.12-12.25,27.18-29.05,32-49.4a41.55,41.55,0,0,0-.23-21.13c-1.87-6.82-5.12-12.63-12.24-15.32a18.75,18.75,0,0,1-3.54-1.81,2.56,2.56,0,0,1-.91-3.13,2.42,2.42,0,0,1,2.38-1.51c4.92-.25,8.71,2.41,11.85,5.53a33.29,33.29,0,0,1,8.83,16.48c2.18,9.37,1.32,18.41-1.2,27.56-1.64,5.95-3.36,11.84-6.13,17.34-6.87,13.68-15.66,25.68-28.35,34.77-5.07,3.63-10.78,5.79-16.06,8.87-4.59,2.68-10.25,3.11-15.45,3.37-7.58.37-15.25-.08-22.17-4.28-5.19-3.15-9-7.63-13-12-.44-.47-.63-1.21-1.11-1.62-4-3.43-7.71-7-8.54-13.75a22.34,22.34,0,0,0-3.21,7.45,230.13,230.13,0,0,1-13.48,37.49c-1.43,3.14-2.5,6.88-6.18,8.7-5.46,2.68-13.5.74-17.33-4.59-8.39-11.67-13.72-24.49-14.25-39,0-.42,0-.67-.28-.71-2,1.81-4,3.48-5.77,5.36-3.56,3.72-7.73,6.39-12.83,7.12-2.31.33-3,1.16-3.25,3.36-1.12,9.74-2.41,19.45-4.47,29.07A88.87,88.87,0,0,1,524,554.53a24.15,24.15,0,0,1-12.72,11.39c-2.42,1-4.86.55-7.31,0-6.56-1.55-10.91-5.91-14.24-11.41-3.89-6.39-5.87-13.64-8.87-20.44-1.38-3.13.68-6.57-1-9.64-1.61-.39-1.79,1.07-2.48,1.9-5.25,6.27-9.6,13.16-14,20-1.76,2.69-1.86,5.24-1.26,8.44,1.53,8.07,2.15,16.3,3.53,24.4,1.41,8.27,2.08,16.62,3.47,24.9,1.67,10,3.82,19.92,4.67,29.94.54,6.37,1.42,12.76,1.65,19.2.18,4.75.64,9.56,1.14,14.33a50.47,50.47,0,0,1,.09,12.82,6.66,6.66,0,0,0-.06,2.95c2,7,1.11,14,.84,21.13-.21,5.52-1.77,10.66-2.23,16-1.09,12.52-5.38,23.71-11.86,34.25-4.79,7.79-11.12,13.68-19.85,16.89a20,20,0,0,1-21.08-4.68c-7.56-7.5-10.6-17-12.67-27-3.9-18.76-1.55-37.4,1.24-56a459.87,459.87,0,0,1,10.43-49.16c3.68-13.94,7.79-27.79,12.78-41.35,1.32-3.58,2.62-7.17,4-10.74a6.32,6.32,0,0,0,.11-4.8,14.76,14.76,0,0,1-.47-8.67c.7-3-.1-5.9-1.32-8.67-1.8-4.09-2.74-8-1.83-12.76.79-4-.36-8.43-1.46-12.79-2.8.76-3,3.06-3.64,4.67-3.43,8.47-6.85,17-9.87,25.57-4.35,12.35-8.29,24.85-12.53,37.25-2.31,6.74-4.63,13.51-7.41,20.07-2.12,5-5.58,8.94-11.41,10-4.3.79-7.53-1.13-10.08-4.14a38.91,38.91,0,0,1-7-13.47,109.43,109.43,0,0,1-4.12-19.75c-.43-3.16-.38-6.45-.85-9.7-1.06-7.38.37-14.62,1.78-21.83.15-.8.17-1.62.27-2.65-2,.16-2.64,1.59-3.37,2.71-6,9.19-11.71,18.51-16.95,28.13-11.14,20.44-21.18,41.45-32.16,62-8.28,15.46-18.52,29.69-31.9,41.21-15.67,13.49-33.9,16-52.22,5.31C220.72,693.85,212.88,684,207,672.71A110.92,110.92,0,0,1,198,648a98.94,98.94,0,0,1-2.78-24.07c0-11.18,2.29-21.7,5.5-32.21a23.69,23.69,0,0,1,3.47-6.56c.72-1,2-2.06,3.44-1.18s1,2.08.51,3.49a114.3,114.3,0,0,0-5.92,39.69c.27,10.12,2.4,20,5.37,29.77A79.78,79.78,0,0,0,219,680.52c5.58,7.71,12.41,14.39,21.49,18.06,10.94,4.41,21.84,4.16,32.17-1.73,12.45-7.11,21.1-18.15,29.12-29.68,8.18-11.77,14.25-24.73,20.65-37.51,10.12-20.2,20.17-40.46,31.72-59.91,4.49-7.56,9-15.15,14.85-21.8,1.65-1.89,2-4.18,2.82-6.31,2.61-6.56,11.7-8.52,16.34-3.39,2.43,2.7,3,6.28,3.45,9.69a54.26,54.26,0,0,1-.55,14.54c-.81,5.53-1.93,11.21-.62,16.95a10.5,10.5,0,0,1-.41,5.37c-1.39,4.36-2.24,8.77-.52,13.32.3.8-.35,1.92-.42,2.9a37.19,37.19,0,0,0,2,14.26c2.57-.52,3.07-2.74,4-4.57,8.05-16.23,13.68-33.43,20.4-50.2,5.3-13.24,10.75-26.43,16.21-39.61a14.42,14.42,0,0,0,1.16-8.7c-1.39-6.7,1.62-12,5.89-16.63,4.1-4.4,11.7-1.88,13.71,4.63,1.83,5.95,5,11.68,4.08,18.26,2.88,5.21.5,11.42,3.22,16.73,1.28,2.5,2.09,3.09,3.54,1,4.61-6.74,9.94-12.92,14.82-19.45,1-1.32.92-2.82,1.12-4.27.45-3.44.95-6.89,1.11-10.35a31.89,31.89,0,0,1,3.8-13.79c3-5.45,5.6-11.19,9.83-15.92,3-3.35,7.13-4.82,11.07-6.32,2.14-.81,2.64-2.05,3.38-3.73,1.64-3.72,3.5-7.23,8.41-7.39,4.29-.13,7.13,2.3,9.81,5.12,7.2,7.58,9.17,17.12,9.93,27.06.51,6.77,1.82,7.77,7.71,4.12,6.92-4.29,12.1-10.13,13.52-18.7.65-3.86.78-7.74,1.22-11.6a34.25,34.25,0,0,1,7.15-17.18c4-5.25,7.52-6.64,12.25-4.82,5.66,2.18,7.45,6.14,7.52,12.13,0,3.61.1,7.2.48,10.79a3.51,3.51,0,0,1,0,1.48c-1.35,4.13-.52,8.55-1.45,12.63a56.85,56.85,0,0,0-.89,9.32c-.18,2.81,0,5.66-1.08,8.36a3.8,3.8,0,0,0-.28,1.93C583.93,502.69,583.91,510.07,587.57,517.64ZM441.15,593.92c-2.54,3.51-3.14,7.13-4.22,10.48A527,527,0,0,0,420.4,670c-4,21.69-6.7,43.27-2.65,65.25a45.08,45.08,0,0,0,9.76,21.46c2.81,3.3,7.46,5.42,12.87,1.86,3.35-2.22,4.92-5.74,7.39-8.57a16.38,16.38,0,0,0,4.3-9.35,8.32,8.32,0,0,1,1.45-3.64,14.49,14.49,0,0,0,1.92-7.58,27.15,27.15,0,0,1,.49-5.93c1.09-4.38,1-8.83,1.14-13.27.38-9.61-1.28-19.13-1.26-28.73,0-3.14.24-6.41-.49-9.4-2.62-10.65-3-21.71-5.95-32.29a7.75,7.75,0,0,1-.27-3.44c1-5.28-1.22-10.19-2.43-15-1.05-4.16-1.67-8.35-2.59-12.5C443,604.15,443.15,599.18,441.15,593.92Zm61.21-64.62c-1.18,6.46,0,13.18,2.52,19.44,3.82,9.36,5.79,9.16,11.93,3.22a10.92,10.92,0,0,0,1.84-2.34c8.71-15,11.47-31.71,13.15-48.66.13-1.31-.2-2.15-1.74-2.46-6.13-1.22-10-5.51-13.59-10.19a21.89,21.89,0,0,0-3.36-3.63,1.6,1.6,0,0,0-2.59.27c-2.79,5.24-6.39,10.38-7.09,16.24C502.34,510.35,501.17,519.59,502.36,529.3Zm29.08-38a45.72,45.72,0,0,0-2.82-17.38,22.33,22.33,0,0,0-6.74-10.13c-1.16-1-2.45-2.83-4.26-1.74-1.49.91-1.38,2.9-1.67,4.52a2.85,2.85,0,0,0,.77,2.75c1.94,1.81,3.16,3.82,2.23,6.61a1.92,1.92,0,0,0,.15,1.45C522.23,482.42,525.54,487.3,531.44,491.31Z"/><path class="b" d="M266.11,26.14c1.22,0,2.16.13,2.4,1,.36,1.33-.85,1.7-1.76,1.93-6.15,1.53-12,4-17.95,6.08a284.32,284.32,0,0,0-59.63,29.61c-21.69,14.1-41.16,30.84-59.45,49.07-12.89,12.85-23.72,27.31-34.38,42-5.19,7.13-8.94,15.09-13.79,22.37s-7.81,15.29-12.64,22.47a38.77,38.77,0,0,0-5.39,11.67c-.66,2.51-2.71,4.13-3.83,6.35a145.72,145.72,0,0,0-7.22,16.4c-2.39,6.55-5.48,12.81-8,19.29-1.32,3.39-2.33,6.91-3.31,10.41-1.65,5.88-3.4,11.73-5.36,17.51a62.92,62.92,0,0,0-2.33,11.21c-1.17,8-3,16-3.53,24.14-.41,6.1-1.17,12.19-1.93,18.27-2.14,17.15-1.17,34.17,1.75,51.16A133.24,133.24,0,0,0,33,401.67c2.11,7.25,5.09,14.08,10.34,19.7.78.84,1.79,1.81.76,3-1.22,1.43-2.47.44-3.47-.38-4.49-3.7-7.19-8.7-9.37-13.92-5-12.08-7.36-24.85-9.16-37.72-2.46-17.56-2.2-35.14-.72-52.77.7-8.28.87-16.6,1.39-24.9.51-8.12,2.38-16,4.3-23.89s4.18-15.65,6.75-23.35C36.26,240,39.53,233,42.57,225.8A199.63,199.63,0,0,1,52,205.57q5.34-9.49,10.93-18.84c2.72-4.52,6.2-8.6,8.22-13.52,1.16-2.85,3.58-4.71,5.28-7.13,4.75-6.78,9.14-13.87,14.78-20,6.41-6.94,13.08-13.65,19.42-20.66,5.46-6.05,11.06-11.92,16.91-17.59,9.55-9.27,19.66-17.85,30-26.19A289.1,289.1,0,0,1,205.81,50,274,274,0,0,1,247.4,32c5.21-1.7,10.27-3.88,15.64-5.13Z"/><path class="b" d="M436.85,89.35c-16.71-1.5-33.44-.92-50.12,0A152.19,152.19,0,0,0,364,91.88c-3.58.75-7.48.77-11.22,1.46C343,95.16,333,96.18,323.47,98.73c-9.89,2.64-20,4.42-29.67,8.13-9,3.44-18.12,6.44-27.05,10-7.33,2.93-14.44,6.46-21.57,9.87a238.19,238.19,0,0,0-45.35,28.65,255.73,255.73,0,0,0-39.65,39.83c-9,11.06-15.74,23.44-21.67,36.31s-11.94,26-17.86,39c-.9,1.95-1.5,4-2.33,6-.31.75-.84,1.55-1.88,1.14s-1-1.33-.79-2.12a38.93,38.93,0,0,1,1.81-5.7c8.33-18.85,16.64-37.72,26.1-56,6.3-12.19,14.78-22.89,23.62-33.28a299.89,299.89,0,0,1,24-25.3,282.47,282.47,0,0,1,29.55-23.66c6.49-4.59,12.87-9.26,19.77-13.27a262.22,262.22,0,0,1,27.63-14.49c7.76-3.34,15.75-6.18,23.63-9.25,11.64-4.52,23.85-7,36-9.26s24.09-4.57,36.44-4.81c6.57-.13,13.14-1.19,19.74-1.3,7.57-.14,15.14-.3,22.7.87,2.51.38,5.2.21,7.82.38a262.81,262.81,0,0,1,34.53,4c16.9,3.33,33.62,7.32,49.8,13.48,9.64,3.67,18.89,8.19,28.38,12.15,2.89,1.21,5.47,3.15,8.17,4.8,1.23.75,2.18,1.93,1.32,3.28s-2.14.54-3.14,0c-7.09-4-14.68-7-22.11-10.29A211.15,211.15,0,0,0,461,92.51C453,91.15,445,90,436.85,89.35Z"/><path class="b" d="M753.72,6.48C727,7.66,704.51,12.83,683.3,23.23c-3.43,1.68-6.8,3.49-10.23,5.17-1.1.54-2.5,2-3.49.35s.58-2.64,1.86-3.39c2.29-1.35,4.55-2.78,6.95-3.92,11.12-5.27,22.31-10.4,34.23-13.7C727.24,3.69,742.05.24,757.23,0c9.23-.13,18.54.39,27.8.72,12.56.45,24,4.71,35.6,8.47,2.68.87,5.29,2,8.15,2.25a3.25,3.25,0,0,1,1.45.32c6.57,4.25,14.1,6.48,20.95,10.12,3.47,1.85,7,3.57,10.43,5.51,3.74,2.13,6.67,5.35,10.2,7.81a65.69,65.69,0,0,1,10,8.54c3.89,4.06,8.07,7.89,11.62,12.25a146.89,146.89,0,0,1,26.4,47.65,118.33,118.33,0,0,1,5.87,31.73,37.86,37.86,0,0,1-.44,6.46,5,5,0,0,1-1.83,3.44,1.73,1.73,0,0,1-1.87.27,1.42,1.42,0,0,1-.7-1.68c3-15.58-1.85-29.92-7.37-44a101,101,0,0,0-24.28-36.69c-7.81-7.46-16.59-13.64-25.44-19.82A123.4,123.4,0,0,0,843.56,31.9c-6.3-2.82-12.52-6-19-8.36S811.84,19,805.5,16.63C794.81,12.61,784,9,772.37,8.48,765.09,8.15,757.91,6.15,753.72,6.48Z"/><path class="b" d="M740.37,403.52c-.62-2.44,0-6.79-.11-11.06a77.33,77.33,0,0,1,2.61-23.19c1.42-5.09,2.3-10.38,4.57-15.22.85-1.8,1.67-3.62,2.68-5.33.57-1,1.43-2,2.81-1.48s1.5,1.66,1.24,2.92c-.29,1.47-.61,2.93-.88,4.4a109.09,109.09,0,0,0-.78,31.67c.64,6.09,2.38,12,2.35,18.2a8.84,8.84,0,0,0,.31,3c3.24,9.2,4.5,18.91,7.52,28.19a152.92,152.92,0,0,0,5.06,14.56,37,37,0,0,0,8.33,12.27c.36.34.72.7,1.07,1a1.66,1.66,0,0,1,.36,2.23,1.78,1.78,0,0,1-2.52.88,21.67,21.67,0,0,1-3.69-2.52c-7.29-6.29-12.53-14.19-17.36-22.39a126.21,126.21,0,0,1-10.49-23.4A59.37,59.37,0,0,1,740.37,403.52Z"/><path class="b" d="M206.91,794.79c-4.91-1-11.23-1.07-17.49-1.78-16-1.82-29.12-9.48-41.69-18.66-3.11-2.27-5.57-5.2-8.21-8a13.05,13.05,0,0,1-2.28-4.39,1.77,1.77,0,0,1,.55-2.24,1.71,1.71,0,0,1,2.62.42,23,23,0,0,0,4.86,4.93c6.28,5.39,13.62,8.78,21.31,11.53,3.91,1.4,7.87,2.63,11.83,3.89a11.55,11.55,0,0,0,3.4.72c7.84,0,15.4,2,23.1,3.06,11.42,1.53,22.87,2.18,34.29.71,13.08-1.69,25.83-4.74,37.15-12a4.24,4.24,0,0,1,1.83-.72,1.84,1.84,0,0,1,1.22.67,1.1,1.1,0,0,1,0,1.38,8.19,8.19,0,0,1-2.7,2.15c-9.36,6-19.73,9.4-30.35,12.29A160,160,0,0,1,206.91,794.79Z"/><path class="b" d="M691.94,681.87c21.82,0,43-4.3,64-9.48,15.49-3.83,30.52-9.2,45.5-14.76,15.53-5.76,30-13.56,43.89-22.31a255.61,255.61,0,0,0,23.39-16.9,352.24,352.24,0,0,0,28.39-24.95c4.34-4.3,8.49-8.81,12.67-13.27,3.29-3.51,6.93-6.66,9.84-10.55,1.48-2,3.37-3.61,4.52-5.9,1.66-3.29,5.45-4.66,7.22-8,3.83-7.34,9.55-13.43,14.12-20.32,4.38-6.6,8.68-13.31,12.6-20.09,5.28-9.13,10.59-18.43,13.94-28.58,1.87-5.66,5.23-10.66,6.89-16.48,3-10.5,6.65-20.83,9.82-31.29a42.58,42.58,0,0,0,1.54-9.34c.77-10.92,2.07-21.8,2-32.81-.05-9.05-2.55-17.34-5.85-25.52-1.37-3.39-3.05-6.65-4.62-9.95-.54-1.13-.9-2.28.23-3.16s2.55-.57,3.62.41a7.8,7.8,0,0,1,1.88,2.3c3.42,7.57,7.61,14.81,10.12,22.79a76.4,76.4,0,0,1,3.32,23.6c-.06,8.28-.37,16.55-.16,24.84.1,4.1-1.19,8.2-1.68,12.27-.9,7.32-3.74,14.05-5.3,21.15a100.94,100.94,0,0,1-9.63,26,18.75,18.75,0,0,0-1.33,2.65,154.78,154.78,0,0,1-13.65,28c-5.65,9.48-12,18.5-18.6,27.39-3,4.12-6.2,8.14-9.27,12.24-5.36,7.15-11.77,13.33-17.87,19.81a307.34,307.34,0,0,1-25.8,24.09,321.57,321.57,0,0,1-28.18,21.2c-10.21,6.87-20.67,13.26-31.5,19.09-9.83,5.28-19.92,9.88-30.19,14.25a348.41,348.41,0,0,1-37,13.28,269.36,269.36,0,0,1-53.77,10.19c-11.77,1-23.53,1.81-35.34,1.84a45.81,45.81,0,0,1-6-.39c-1.15-.14-2.54-.64-2.23-2.11a2,2,0,0,1,2.47-1.24c4.49.86,9-.15,13.45,0C690.27,681.9,691.11,681.87,691.94,681.87Z"/></svg>