<svg viewBox="0 0 47 47" fill="none" xmlns="http://www.w3.org/2000/svg">
<path d="M23.3451 0C10.4469 0 0 10.4469 0 23.3451C0 36.2432 10.4469 46.6901 23.3451 46.6901C36.2432 46.6901 46.6901 36.2432 46.6901 23.3451C46.6901 10.4469 36.2432 0 23.3451 0ZM38.4221 35.6207C37.9163 34.4729 36.8852 33.6947 34.7842 33.2084C30.3291 32.1773 26.1659 31.2824 28.1892 27.4888C34.2978 15.9136 29.8039 9.72711 23.3451 9.72711C16.7501 9.72711 12.3729 16.147 18.501 27.4694C20.5826 31.2824 16.2637 32.1967 11.906 33.1889C9.80493 33.6753 8.77386 34.4729 8.26805 35.6207C5.54445 32.2746 3.89085 27.9946 3.89085 23.3451C3.89085 12.6258 12.6258 3.89085 23.3451 3.89085C34.0643 3.89085 42.7993 12.6258 42.7993 23.3451C42.7993 27.9946 41.1651 32.2551 38.4221 35.6207Z" fill="#000"/>
</svg>
